<svg width="20" height="20" viewBox="0 0 20 20" fill="none" xmlns="http://www.w3.org/2000/svg">
<path d="M19.8958 8.6703C19.8436 8.41299 19.654 8.20517 19.4038 8.1256C19.0145 8.0018 18.6251 7.87799 18.2357 7.75419C18.0444 7.05092 17.7654 6.3838 17.4112 5.76524C17.5991 5.40214 17.787 5.03905 17.9749 4.67594C18.097 4.44003 18.0801 4.15686 17.9329 3.93576C17.7165 3.61081 17.4307 3.28853 17.0711 2.92893C16.7088 2.5667 16.3845 2.2793 16.0571 2.06237C15.8383 1.91734 15.5573 1.9044 15.3241 2.02507C14.961 2.21299 14.5979 2.40089 14.2348 2.58879C13.6162 2.23459 12.9491 1.95558 12.2458 1.76425C12.122 1.3749 11.9982 0.985561 11.8744 0.596206C11.7939 0.343056 11.5818 0.154764 11.3213 0.102528C10.9386 0.0257566 10.5086 0 10 0C9.48774 0 9.05516 0.0261433 8.67029 0.104224C8.41299 0.156423 8.20516 0.34595 8.1256 0.596157C8.00179 0.985524 7.87799 1.37489 7.75418 1.76425C7.05092 1.95557 6.38379 2.23458 5.76524 2.58879C5.40214 2.4009 5.03905 2.213 4.67594 2.02509C4.44002 1.90301 4.15685 1.91988 3.93576 2.0671C3.61081 2.28347 3.28852 2.56932 2.92893 2.92892C2.5667 3.29115 2.2793 3.61552 2.06237 3.94287C1.91734 4.16173 1.9044 4.4427 2.02507 4.67587C2.21298 5.03899 2.40089 5.4021 2.58879 5.76521C2.23459 6.38377 1.95558 7.0509 1.76425 7.75416C1.3749 7.87795 0.985561 8.00176 0.596206 8.12555C0.343055 8.20604 0.154764 8.41821 0.102527 8.67865C0.0257566 9.06142 0 9.49144 0 9.99999C0 10.5122 0.0261431 10.9448 0.104224 11.3297C0.156423 11.587 0.345949 11.7948 0.596156 11.8744C0.985523 11.9982 1.37489 12.122 1.76425 12.2458C1.95557 12.9491 2.23457 13.6162 2.58879 14.2348C2.4009 14.5979 2.213 14.9609 2.02509 15.3241C1.90301 15.56 1.91988 15.8431 2.0671 16.0642C2.28347 16.3892 2.56932 16.7115 2.92892 17.0711C3.29114 17.4333 3.61551 17.7207 3.94287 17.9376C4.16173 18.0827 4.44269 18.0956 4.67586 17.9749C5.03899 17.787 5.4021 17.5991 5.76521 17.4112C6.38377 17.7654 7.05089 18.0444 7.75416 18.2358C7.87795 18.6251 8.00176 19.0144 8.12555 19.4038C8.20604 19.6569 8.4182 19.8452 8.67865 19.8975C9.06142 19.9742 9.49144 20 9.99998 20C10.5122 20 10.9448 19.9739 11.3297 19.8958C11.587 19.8436 11.7948 19.6541 11.8744 19.4038C11.9982 19.0145 12.122 18.6251 12.2458 18.2358C12.9491 18.0444 13.6162 17.7654 14.2348 17.4112C14.5979 17.5991 14.9609 17.787 15.3241 17.9749C15.56 18.097 15.8431 18.0801 16.0642 17.9329C16.3892 17.7165 16.7115 17.4307 17.0711 17.0711C17.4333 16.7089 17.7207 16.3845 17.9376 16.0571C18.0827 15.8383 18.0956 15.5573 17.9749 15.3241C17.787 14.961 17.5991 14.5979 17.4112 14.2348C17.7654 13.6162 18.0444 12.9491 18.2358 12.2458C18.6251 12.122 19.0144 11.9982 19.4038 11.8744C19.6569 11.794 19.8452 11.5818 19.8975 11.3213C19.9742 10.9386 20 10.5086 20 10C20 9.48776 19.9738 9.05516 19.8958 8.6703ZM9.99999 16.2956C6.52305 16.2956 3.70441 13.477 3.70441 10C3.70441 6.52307 6.52305 3.70442 9.99999 3.70442C13.4769 3.70442 16.2956 6.52307 16.2956 10C16.2956 13.477 13.4769 16.2956 9.99999 16.2956Z" fill="white"/>
<path d="M12.31 8.47367C12.31 8.28856 12.1599 8.13848 11.9748 8.13848C11.9445 8.13848 11.9152 8.14256 11.8874 8.15007V7.88946C11.8874 6.78099 11.2846 6.05949 9.99971 6.05949C8.71484 6.05949 8.11206 6.78099 8.11206 7.88946V8.15007C8.08418 8.14256 8.0549 8.13848 8.02464 8.13848C7.83953 8.13848 7.68945 8.28854 7.68945 8.47367C7.68945 8.63275 7.8859 9.19815 8.1235 9.35403C8.23457 10.3648 9.1382 11.1531 9.99971 11.1531C10.8958 11.1531 11.7694 10.3646 11.8764 9.35372C12.1138 9.19741 12.31 8.63265 12.31 8.47367Z" fill="white"/>
<path d="M13.7883 14.2229C12.7927 15.1423 11.4618 15.704 9.99964 15.704C8.53753 15.704 7.20658 15.1423 6.21094 14.2229C6.24377 13.2117 6.65078 12.4436 7.05199 12.1428C7.89108 11.5136 8.97024 11.2374 8.97024 11.2374L9.64496 11.3583C9.6495 11.361 9.79727 11.4142 9.99964 11.4142C10.202 11.4142 10.3498 11.361 10.3543 11.3583L11.029 11.2374C11.029 11.2374 12.1082 11.5136 12.9473 12.1428C13.3485 12.4436 13.7555 13.2117 13.7883 14.2229Z" fill="white"/>
</svg>
