<svg width="18" height="17" viewBox="0 0 18 17" fill="none" xmlns="http://www.w3.org/2000/svg">
<path d="M4.0957 16.4092H13.7373C15.5391 16.4092 16.5322 15.4424 16.5322 13.6406V5.11523C17.3584 4.89551 17.8242 4.20996 17.8242 3.23438V1.95117C17.8242 0.764648 17.1387 0 15.9521 0H1.88086C0.738281 0 0 0.764648 0 1.95117V3.23438C0 4.20996 0.46582 4.89551 1.30078 5.10645V13.6406C1.30078 15.4512 2.28516 16.4092 4.0957 16.4092ZM2.22363 3.59473C1.81055 3.59473 1.64355 3.41016 1.64355 3.00586V2.1709C1.64355 1.7666 1.81055 1.58203 2.22363 1.58203H15.6182C16.0225 1.58203 16.1895 1.7666 16.1895 2.1709V3.00586C16.1895 3.41016 16.0225 3.59473 15.6182 3.59473H2.22363ZM4.16602 14.7568C3.42773 14.7568 3.02344 14.3613 3.02344 13.6143V5.17676H14.8096V13.6143C14.8096 14.3613 14.3965 14.7568 13.6582 14.7568H4.16602ZM6.08203 8.7627H11.7598C12.1729 8.7627 12.4717 8.47266 12.4717 8.04199V7.76074C12.4717 7.33008 12.1729 7.04004 11.7598 7.04004H6.08203C5.66895 7.04004 5.37012 7.33008 5.37012 7.76074V8.04199C5.37012 8.47266 5.66895 8.7627 6.08203 8.7627Z" fill="#545A6D"/>
</svg>
