<svg width="11" height="18" viewBox="0 0 11 18" fill="none" xmlns="http://www.w3.org/2000/svg">
<path d="M10.2994 17.5689C10.6452 17.2216 10.8066 16.8144 10.7836 16.3473C10.772 15.8683 10.6107 15.4671 10.2994 15.1437L3.9885 9L10.2994 2.85629C10.6222 2.54491 10.7778 2.1497 10.7663 1.67066C10.7663 1.17964 10.5991 0.772455 10.2648 0.449102C9.95362 0.149701 9.579 0 9.14098 0C8.70296 0 8.32258 0.161677 7.99983 0.48503L1.3431 6.98802C0.962719 7.33533 0.709129 7.76048 0.582334 8.26347C0.467066 8.75449 0.47283 9.2515 0.599624 9.75449C0.726419 10.2455 0.974246 10.6707 1.3431 11.0299L7.99983 17.5329C8.29953 17.8323 8.68567 17.988 9.15827 18C9.6424 18 10.0228 17.8563 10.2994 17.5689Z" fill="#ffffff"/>
</svg>
