<svg width="28" height="28" viewBox="0 0 28 28" fill="none" xmlns="http://www.w3.org/2000/svg">
<g filter="url(#filter0_d_166_709)">
<path d="M5.95448 19.0239L5.88198 18.9985C5.49894 18.8445 5.21463 18.5954 5.05191 18.3104L5.02408 18.2541C4.99996 18.2053 4.97807 18.157 4.96222 18.1172C4.91899 18.004 4.89639 17.883 4.89639 17.75V1.88C4.89639 1.40336 5.39363 0.85 6.23023 0.85H20.3061V19.15H6.6692C6.47657 19.15 6.29935 19.1264 6.13543 19.0818C6.07976 19.0661 6.01593 19.0455 5.95448 19.0239ZM5.36902 19.1312C5.36559 19.1341 5.36661 19.1332 5.37024 19.1302L5.36902 19.1312ZM6.34973 19.59V19.5827C6.35006 19.5959 6.34973 19.6006 6.34973 19.59ZM4.49089 17.925H4.48621C4.47835 17.925 4.48153 17.9249 4.49089 17.925ZM4.87415 18.9778C4.87043 18.981 4.86928 18.9819 4.87286 18.9788L4.87415 18.9778Z" stroke="white" stroke-width="1.2"/>
<mask id="path-2-inside-1_166_709" fill="white">
<path d="M20.3249 20H6.66937C6.39595 20 6.1315 19.9656 5.88385 19.8977C5.86416 19.8921 5.84419 19.8865 5.82418 19.8804L5.81868 19.8848L5.4537 19.7488C4.95668 19.5325 4.55492 19.1941 4.2983 18.7749H4.28818L4.13205 18.4658L4.14015 18.459C4.13379 18.4439 4.1277 18.4287 4.12192 18.4141C4.04081 18.2026 4 17.9797 4 17.75V1.87987C4 0.843233 5.00046 0 6.23029 0H20.3249C20.809 0 21.2029 0.332033 21.2029 0.74V19.26C21.2028 19.668 20.8089 20 20.3249 20ZM5.80334 19.3364L5.86938 19.3591C5.93428 19.3818 6.00435 19.4045 6.06925 19.4229C6.25579 19.4739 6.45823 19.5 6.66941 19.5H20.3249C20.4819 19.5 20.6097 19.3923 20.6097 19.26V0.74C20.6097 0.607667 20.4819 0.5 20.3249 0.5H6.23025C5.32739 0.5 4.59316 1.1189 4.59316 1.87987V17.75C4.59316 17.9275 4.62417 18.0984 4.68527 18.2581C4.70611 18.3106 4.73336 18.3696 4.76029 18.4243L4.7907 18.4863C5.00069 18.8623 5.35638 19.1609 5.80334 19.3364Z"/>
</mask>
<path d="M5.88385 19.8977L5.55564 21.052L5.56669 21.055L5.88385 19.8977ZM5.82418 19.8804L6.17409 18.7325L5.5685 18.5479L5.07426 18.9436L5.82418 19.8804ZM5.81868 19.8848L5.39967 21.0092L6.03735 21.2469L6.5686 20.8216L5.81868 19.8848ZM5.4537 19.7488L4.97486 20.8491L5.00445 20.862L5.0347 20.8732L5.4537 19.7488ZM4.2983 18.7749L5.32174 18.1483L4.97067 17.5749H4.2983V18.7749ZM4.28818 18.7749L3.21709 19.316L3.54995 19.9749H4.28818V18.7749ZM4.13205 18.4658L3.35873 17.5482L2.63304 18.1598L3.06096 19.0069L4.13205 18.4658ZM4.14015 18.459L4.91347 19.3766L5.58868 18.8076L5.24624 17.9936L4.14015 18.459ZM4.12192 18.4141L3.00149 18.8439L3.00533 18.8536L4.12192 18.4141ZM21.2029 19.26L22.4029 19.2601V19.26H21.2029ZM5.80334 19.3364L5.36468 20.4534L5.38879 20.4629L5.4133 20.4713L5.80334 19.3364ZM5.86938 19.3591L6.26559 18.2264L6.25942 18.2243L5.86938 19.3591ZM6.06925 19.4229L5.74301 20.5777L5.7526 20.5803L6.06925 19.4229ZM4.68527 18.2581L3.56452 18.6869L3.56719 18.6939L3.56994 18.7008L4.68527 18.2581ZM4.76029 18.4243L5.83766 17.8959L5.83688 17.8943L4.76029 18.4243ZM4.7907 18.4863L3.71333 19.0148L3.72743 19.0435L3.74304 19.0715L4.7907 18.4863ZM20.3249 18.8H6.66937V21.2H20.3249V18.8ZM6.66937 18.8C6.49614 18.8 6.33881 18.7781 6.20102 18.7404L5.56669 21.055C5.92418 21.153 6.29576 21.2 6.66937 21.2V18.8ZM6.21206 18.7435C6.18817 18.7367 6.18079 18.7346 6.17409 18.7325L5.47427 21.0282C5.50759 21.0384 5.54015 21.0475 5.55565 21.0519L6.21206 18.7435ZM5.07426 18.9436L5.06876 18.948L6.5686 20.8216L6.5741 20.8172L5.07426 18.9436ZM6.23769 18.7603L5.87271 18.6243L5.0347 20.8732L5.39967 21.0092L6.23769 18.7603ZM5.93255 18.6484C5.63663 18.5197 5.43634 18.3355 5.32174 18.1483L3.27487 19.4015C3.6735 20.0526 4.27673 20.5453 4.97486 20.8491L5.93255 18.6484ZM4.2983 17.5749H4.28818V19.9749H4.2983V17.5749ZM5.35927 18.2338L5.20314 17.9248L3.06096 19.0069L3.21709 19.316L5.35927 18.2338ZM4.90536 19.3834L4.91347 19.3766L3.36684 17.5414L3.35873 17.5482L4.90536 19.3834ZM5.24624 17.9936C5.24457 17.9897 5.24211 17.9836 5.23851 17.9745L3.00533 18.8536C3.01328 18.8738 3.023 18.8981 3.03406 18.9244L5.24624 17.9936ZM5.24231 17.9843C5.21481 17.9126 5.2 17.8356 5.2 17.75H2.8C2.8 18.1239 2.86681 18.4927 3.00154 18.8439L5.24231 17.9843ZM5.2 17.75V1.87987H2.8V17.75H5.2ZM5.2 1.87987C5.2 1.76743 5.25146 1.61698 5.42733 1.46874C5.60549 1.31858 5.88604 1.2 6.23029 1.2V-1.2C4.53813 -1.2 2.8 -0.00355914 2.8 1.87987H5.2ZM6.23029 1.2H20.3249V-1.2H6.23029V1.2ZM20.3249 1.2C20.2962 1.2 20.2386 1.1907 20.172 1.13456C20.1032 1.07652 20.0029 0.942052 20.0029 0.74H22.4029C22.4029 -0.514747 21.2713 -1.2 20.3249 -1.2V1.2ZM20.0029 0.74V19.26H22.4029V0.74H20.0029ZM20.0029 19.2599C20.0029 19.0579 20.1032 18.9234 20.172 18.8654C20.2386 18.8093 20.2961 18.8 20.3249 18.8V21.2C21.2713 21.2 22.4028 20.5147 22.4029 19.2601L20.0029 19.2599ZM5.4133 20.4713L5.47934 20.494L6.25942 18.2243L6.19338 18.2016L5.4133 20.4713ZM5.47317 20.4918C5.55479 20.5204 5.64886 20.5511 5.74302 20.5777L6.39548 18.2681C6.35984 18.258 6.31377 18.2433 6.26559 18.2264L5.47317 20.4918ZM5.7526 20.5803C6.05086 20.6619 6.36048 20.7 6.66941 20.7V18.3C6.55598 18.3 6.46073 18.2859 6.3859 18.2654L5.7526 20.5803ZM6.66941 20.7H20.3249V18.3H6.66941V20.7ZM20.3249 20.7C20.9443 20.7 21.8097 20.2391 21.8097 19.26H19.4097C19.4097 18.9202 19.5764 18.6607 19.7528 18.5121C19.9269 18.3653 20.1327 18.3 20.3249 18.3V20.7ZM21.8097 19.26V0.74H19.4097V19.26H21.8097ZM21.8097 0.74C21.8097 -0.239116 20.9443 -0.7 20.3249 -0.7V1.7C20.1327 1.7 19.9269 1.63466 19.7528 1.48792C19.5764 1.33926 19.4097 1.07976 19.4097 0.74H21.8097ZM20.3249 -0.7H6.23025V1.7H20.3249V-0.7ZM6.23025 -0.7C4.86502 -0.7 3.39316 0.272137 3.39316 1.87987H5.79316C5.79316 1.90518 5.77814 1.87974 5.84652 1.82211C5.9172 1.76253 6.04943 1.7 6.23025 1.7V-0.7ZM3.39316 1.87987V17.75H5.79316V1.87987H3.39316ZM3.39316 17.75C3.39316 18.0686 3.44909 18.3853 3.56452 18.6869L5.80601 17.8292C5.79925 17.8115 5.79316 17.7864 5.79316 17.75H3.39316ZM3.56994 18.7008C3.60695 18.7941 3.64923 18.8844 3.6837 18.9544L5.83688 17.8943C5.81748 17.8549 5.80527 17.8271 5.8006 17.8153L3.56994 18.7008ZM3.68291 18.9528L3.71333 19.0148L5.86807 17.9579L5.83766 17.8959L3.68291 18.9528ZM3.74304 19.0715C4.10409 19.7179 4.69093 20.1888 5.36468 20.4534L6.242 18.2195C6.02183 18.133 5.89729 18.0067 5.83836 17.9012L3.74304 19.0715Z" fill="white" mask="url(#path-2-inside-1_166_709)"/>
<path d="M7.55221 0.85V17.15H4.89639V1.88C4.89639 1.40336 5.39363 0.85 6.23023 0.85H7.55221Z" stroke="white" stroke-width="1.2"/>
<mask id="path-5-inside-2_166_709" fill="white">
<path d="M8.44902 18H4V1.87987C4 0.843233 5.00046 0 6.23029 0H8.44902V18ZM4.5932 17.5H7.85582V0.5H6.23029C5.32743 0.5 4.5932 1.1189 4.5932 1.87987V17.5Z"/>
</mask>
<path d="M8.44902 18V19.2H9.64902V18H8.44902ZM4 18H2.8V19.2H4V18ZM8.44902 0H9.64902V-1.2H8.44902V0ZM4.5932 17.5H3.3932V18.7H4.5932V17.5ZM7.85582 17.5V18.7H9.05582V17.5H7.85582ZM7.85582 0.5H9.05582V-0.7H7.85582V0.5ZM8.44902 16.8H4V19.2H8.44902V16.8ZM5.2 18V1.87987H2.8V18H5.2ZM5.2 1.87987C5.2 1.76743 5.25146 1.61698 5.42733 1.46874C5.60549 1.31858 5.88604 1.2 6.23029 1.2V-1.2C4.53813 -1.2 2.8 -0.00355923 2.8 1.87987H5.2ZM6.23029 1.2H8.44902V-1.2H6.23029V1.2ZM7.24902 0V18H9.64902V0H7.24902ZM4.5932 18.7H7.85582V16.3H4.5932V18.7ZM9.05582 17.5V0.5H6.65582V17.5H9.05582ZM7.85582 -0.7H6.23029V1.7H7.85582V-0.7ZM6.23029 -0.7C4.86507 -0.7 3.3932 0.272137 3.3932 1.87987H5.7932C5.7932 1.90518 5.77818 1.87974 5.84656 1.82211C5.91724 1.76253 6.04947 1.7 6.23029 1.7V-0.7ZM3.3932 1.87987V17.5H5.7932V1.87987H3.3932Z" fill="white" mask="url(#path-5-inside-2_166_709)"/>
<path d="M5.95448 19.0239L5.86594 18.9928C5.49494 18.8436 5.21559 18.5985 5.05847 18.3237L5.02408 18.2541C4.99995 18.2053 4.97806 18.157 4.96221 18.1171C4.91899 18.0039 4.89639 17.8829 4.89639 17.75V17.7386C4.90103 17.3962 5.06827 17.0591 5.37716 16.7938C5.69953 16.5271 6.15485 16.35 6.6692 16.35H20.3061V19.15H6.6692C6.4766 19.15 6.29941 19.1264 6.1355 19.0818C6.07982 19.0661 6.01596 19.0455 5.95448 19.0239ZM5.36897 19.1312C5.36555 19.1341 5.36657 19.1332 5.37019 19.1302L5.36897 19.1312ZM6.34973 19.59V19.5827C6.35006 19.5959 6.34973 19.6006 6.34973 19.59ZM4.49086 17.925H4.48621C4.47833 17.925 4.48151 17.9248 4.49086 17.925ZM4.87414 18.9777C4.87044 18.9809 4.86932 18.9818 4.8729 18.9788L4.87414 18.9777Z" stroke="white" stroke-width="1.2"/>
<mask id="path-8-inside-3_166_709" fill="white">
<path d="M20.3249 20H6.66941C6.39599 20 6.13154 19.9656 5.88389 19.8977C5.8642 19.8921 5.84423 19.8865 5.82422 19.8804L5.81872 19.8848L5.45374 19.7498C4.95873 19.5364 4.55002 19.1919 4.29716 18.7749H4.28818L4.13205 18.4658L4.14015 18.459C4.13379 18.4439 4.1277 18.4287 4.12192 18.4141C4.04081 18.2026 4 17.9797 4 17.75C4.00637 17.1426 4.283 16.5837 4.77943 16.1594C5.29211 15.7334 5.9624 15.5 6.66941 15.5H20.4672C20.8729 15.5 21.2029 15.7781 21.2029 16.1201V19.26C21.2029 19.668 20.809 20 20.3249 20ZM5.7912 19.3323L5.86942 19.3591C5.93432 19.3818 6.00439 19.4045 6.06929 19.4229C6.25583 19.4739 6.45827 19.5 6.66945 19.5H20.325C20.482 19.5 20.6097 19.3923 20.6097 19.26V16.1201C20.6097 16.0527 20.5472 16 20.4672 16H6.66941C6.11908 16 5.59682 16.1821 5.19886 16.5129C4.81419 16.8418 4.59815 17.2775 4.5932 17.737C4.5932 17.9275 4.62421 18.0984 4.68531 18.258C4.70615 18.3105 4.7334 18.3696 4.76033 18.4243L4.79711 18.4988C5.00073 18.8638 5.35673 19.1624 5.7912 19.3323Z"/>
</mask>
<path d="M5.88389 19.8977L5.55568 21.052L5.56673 21.055L5.88389 19.8977ZM5.82422 19.8804L6.17413 18.7325L5.56854 18.5479L5.07429 18.9436L5.82422 19.8804ZM5.81872 19.8848L5.40242 21.0102L6.03888 21.2457L6.56864 20.8216L5.81872 19.8848ZM5.45374 19.7498L4.97875 20.8518L5.00778 20.8643L5.03744 20.8752L5.45374 19.7498ZM4.29716 18.7749L5.32325 18.1527L4.97288 17.5749H4.29716V18.7749ZM4.28818 18.7749L3.21709 19.316L3.54995 19.9749H4.28818V18.7749ZM4.13205 18.4658L3.35877 17.5482L2.63302 18.1598L3.06096 19.0069L4.13205 18.4658ZM4.14015 18.459L4.91343 19.3766L5.5887 18.8076L5.24624 17.9936L4.14015 18.459ZM4.12192 18.4141L3.00149 18.8439L3.00533 18.8536L4.12192 18.4141ZM4 17.75L2.8 17.7374V17.75H4ZM4.77943 16.1594L4.01249 15.2365L4.00609 15.2418L3.99977 15.2472L4.77943 16.1594ZM5.7912 19.3323L5.35416 20.4499L5.3776 20.459L5.40141 20.4672L5.7912 19.3323ZM5.86942 19.3591L6.26563 18.2264L6.25921 18.2242L5.86942 19.3591ZM6.06929 19.4229L5.74304 20.5777L5.75264 20.5803L6.06929 19.4229ZM5.19886 16.5129L4.43178 15.5901L4.4254 15.5954L4.41908 15.6008L5.19886 16.5129ZM4.5932 17.737L3.3932 17.7241V17.737H4.5932ZM4.68531 18.258L3.56456 18.6869L3.56723 18.6939L3.56998 18.7008L4.68531 18.258ZM4.76033 18.4243L3.68374 18.9544L3.6844 18.9557L4.76033 18.4243ZM4.79711 18.4988L3.72118 19.0302L3.7345 19.0571L3.74915 19.0834L4.79711 18.4988ZM20.3249 18.8H6.66941V21.2H20.3249V18.8ZM6.66941 18.8C6.49618 18.8 6.33885 18.7781 6.20106 18.7404L5.56673 21.055C5.92422 21.153 6.2958 21.2 6.66941 21.2V18.8ZM6.2121 18.7435C6.18821 18.7367 6.18083 18.7346 6.17413 18.7325L5.47431 21.0282C5.50763 21.0384 5.54019 21.0475 5.55569 21.0519L6.2121 18.7435ZM5.07429 18.9436L5.0688 18.948L6.56864 20.8216L6.57414 20.8172L5.07429 18.9436ZM6.23502 18.7593L5.87004 18.6243L5.03744 20.8752L5.40242 21.0102L6.23502 18.7593ZM5.92874 18.6478C5.63756 18.5223 5.43318 18.334 5.32325 18.1527L3.27107 19.3971C3.66686 20.0498 4.27991 20.5505 4.97875 20.8518L5.92874 18.6478ZM4.29716 17.5749H4.28818V19.9749H4.29716V17.5749ZM5.35927 18.2338L5.20314 17.9248L3.06096 19.0069L3.21709 19.316L5.35927 18.2338ZM4.90533 19.3835L4.91343 19.3766L3.36688 17.5414L3.35877 17.5482L4.90533 19.3835ZM5.24624 17.9936C5.24457 17.9897 5.24211 17.9836 5.23852 17.9745L3.00533 18.8536C3.01328 18.8738 3.023 18.8981 3.03406 18.9244L5.24624 17.9936ZM5.24231 17.9843C5.21481 17.9126 5.2 17.8356 5.2 17.75H2.8C2.8 18.1239 2.86681 18.4927 3.00154 18.8439L5.24231 17.9843ZM5.19993 17.7626C5.20232 17.5354 5.29924 17.2937 5.55909 17.0716L3.99977 15.2472C3.26675 15.8737 2.81042 16.7497 2.80007 17.7374L5.19993 17.7626ZM5.54637 17.0824C5.82924 16.8473 6.22331 16.7 6.66941 16.7V14.3C5.70148 14.3 4.75498 14.6195 4.01249 15.2365L5.54637 17.0824ZM6.66941 16.7H20.4672V14.3H6.66941V16.7ZM20.4672 16.7C20.3995 16.7 20.3064 16.6774 20.2138 16.5993C20.1189 16.5193 20.0029 16.3548 20.0029 16.1201H22.4029C22.4029 14.9312 21.3352 14.3 20.4672 14.3V16.7ZM20.0029 16.1201V19.26H22.4029V16.1201H20.0029ZM20.0029 19.26C20.0029 19.0579 20.1032 18.9235 20.172 18.8654C20.2386 18.8093 20.2962 18.8 20.3249 18.8V21.2C21.2713 21.2 22.4029 20.5147 22.4029 19.26H20.0029ZM5.40141 20.4672L5.47963 20.4941L6.25921 18.2242L6.18098 18.1973L5.40141 20.4672ZM5.47321 20.4918C5.55483 20.5204 5.6489 20.5511 5.74306 20.5777L6.39552 18.2681C6.35988 18.258 6.31381 18.2433 6.26563 18.2264L5.47321 20.4918ZM5.75264 20.5803C6.0509 20.6619 6.36052 20.7 6.66945 20.7V18.3C6.55602 18.3 6.46077 18.2859 6.38594 18.2654L5.75264 20.5803ZM6.66945 20.7H20.325V18.3H6.66945V20.7ZM20.325 20.7C20.9443 20.7 21.8097 20.2391 21.8097 19.26H19.4097C19.4097 18.9202 19.5765 18.6607 19.7529 18.5121C19.9269 18.3653 20.1328 18.3 20.325 18.3V20.7ZM21.8097 19.26V16.1201H19.4097V19.26H21.8097ZM21.8097 16.1201C21.8097 15.2062 21.0097 14.8 20.4672 14.8V17.2C20.0846 17.2 19.4097 16.8993 19.4097 16.1201H21.8097ZM20.4672 14.8H6.66941V17.2H20.4672V14.8ZM6.66941 14.8C5.85814 14.8 5.0596 15.0682 4.43178 15.5901L5.96594 17.4357C6.13405 17.296 6.38002 17.2 6.66941 17.2V14.8ZM4.41908 15.6008C3.80204 16.1283 3.40236 16.8796 3.39327 17.7241L5.79313 17.7499C5.79394 17.6754 5.82634 17.5552 5.97865 17.425L4.41908 15.6008ZM3.3932 17.737C3.3932 18.063 3.44727 18.3804 3.56456 18.6869L5.80605 17.8292C5.80115 17.8163 5.7932 17.7919 5.7932 17.737H3.3932ZM3.56998 18.7008C3.60699 18.794 3.64927 18.8843 3.68374 18.9544L5.83692 17.8942C5.81752 17.8549 5.80531 17.827 5.80064 17.8153L3.56998 18.7008ZM3.6844 18.9557L3.72118 19.0302L5.87304 17.9674L5.83626 17.8929L3.6844 18.9557ZM3.74915 19.0834C4.10417 19.7198 4.69218 20.191 5.35416 20.4499L6.22824 18.2147C6.02129 18.1338 5.89729 18.0078 5.84506 17.9141L3.74915 19.0834Z" fill="white" mask="url(#path-8-inside-3_166_709)"/>
<path d="M23.1032 9.66368C23.1032 11.4184 21.3772 13.0075 19.0242 13.0075C16.6712 13.0075 14.9452 11.4184 14.9452 9.66368C14.9452 7.90895 16.6712 6.31985 19.0242 6.31985C21.3772 6.31985 23.1032 7.90895 23.1032 9.66368Z" stroke="white" stroke-width="1.2"/>
<mask id="path-11-inside-4_166_709" fill="white">
<path d="M19.0242 13.8576C17.6952 13.8576 16.4457 13.4214 15.5061 12.6291C14.5662 11.8371 14.0486 10.7839 14.0486 9.66379C14.0486 8.54366 14.5662 7.49046 15.5061 6.69823C16.4457 5.90599 17.6952 5.46973 19.0242 5.46973C20.3531 5.46973 21.6026 5.90599 22.5425 6.69823C23.4824 7.49046 24 8.54369 24 9.66379C24 10.7839 23.4824 11.8371 22.5425 12.6291C21.6026 13.4214 20.3531 13.8576 19.0242 13.8576ZM19.0242 5.96969C17.8537 5.96969 16.7533 6.35396 15.9255 7.05173C15.0977 7.74949 14.6418 8.67723 14.6418 9.66379C14.6418 10.6504 15.0977 11.5779 15.9255 12.2756C16.7534 12.9733 17.8537 13.3576 19.0242 13.3576C20.1946 13.3576 21.2953 12.9734 22.1231 12.2756C22.951 11.5778 23.4069 10.6504 23.4069 9.66379C23.4069 8.67723 22.951 7.74949 22.1231 7.05173C21.2953 6.35396 20.1946 5.96969 19.0242 5.96969Z"/>
</mask>
<path d="M15.5061 12.6291L16.2796 11.7117L16.2793 11.7115L15.5061 12.6291ZM15.5061 6.69823L16.2795 7.61577L16.2796 7.61566L15.5061 6.69823ZM22.5425 12.6291L21.7693 11.7115L21.7692 11.7116L22.5425 12.6291ZM19.0242 12.6576C17.9535 12.6576 16.9845 12.3061 16.2796 11.7117L14.7326 13.5466C15.9069 14.5367 17.437 15.0576 19.0242 15.0576V12.6576ZM16.2793 11.7115C15.5803 11.1224 15.2486 10.393 15.2486 9.66379H12.8486C12.8486 11.1749 13.5521 12.5518 14.7328 13.5468L16.2793 11.7115ZM15.2486 9.66379C15.2486 8.93462 15.5803 8.2051 16.2795 7.61577L14.7327 5.78068C13.5521 6.77583 12.8486 8.1527 12.8486 9.66379H15.2486ZM16.2796 7.61566C16.9845 7.0213 17.9535 6.66973 19.0242 6.66973V4.26973C17.437 4.26973 15.9069 4.79069 14.7326 5.7808L16.2796 7.61566ZM19.0242 6.66973C20.0948 6.66973 21.0639 7.02128 21.7692 7.61577L23.3159 5.78068C22.1414 4.79071 20.6114 4.26973 19.0242 4.26973V6.66973ZM21.7692 7.61577C22.4683 8.20509 22.8 8.93465 22.8 9.66379H25.2C25.2 8.15274 24.4966 6.77583 23.3159 5.78068L21.7692 7.61577ZM22.8 9.66379C22.8 10.393 22.4683 11.1224 21.7693 11.7115L23.3158 13.5468C24.4966 12.5518 25.2 11.1748 25.2 9.66379H22.8ZM21.7692 11.7116C21.0639 12.3061 20.0948 12.6576 19.0242 12.6576V15.0576C20.6114 15.0576 22.1414 14.5366 23.3159 13.5467L21.7692 11.7116ZM19.0242 4.76969C17.5954 4.76969 16.2145 5.2387 15.1521 6.1342L16.6989 7.96925C17.2921 7.46922 18.1121 7.16969 19.0242 7.16969V4.76969ZM15.1521 6.1342C14.0836 7.03487 13.4418 8.28627 13.4418 9.66379H15.8418C15.8418 9.06819 16.1118 8.46412 16.6989 7.96925L15.1521 6.1342ZM13.4418 9.66379C13.4418 11.0414 14.0836 12.2925 15.1522 13.1932L16.6989 11.358C16.1117 10.8632 15.8418 10.2593 15.8418 9.66379H13.4418ZM15.1522 13.1932C16.2145 14.0886 17.5953 14.5576 19.0242 14.5576V12.1576C18.1121 12.1576 17.2922 11.8581 16.6989 11.358L15.1522 13.1932ZM19.0242 14.5576C20.4529 14.5576 21.8341 14.0887 22.8965 13.1931L21.3498 11.3581C20.7566 11.8581 19.9364 12.1576 19.0242 12.1576V14.5576ZM22.8965 13.1931C23.965 12.2925 24.6069 11.0414 24.6069 9.66379H22.2069C22.2069 10.2593 21.9369 10.8631 21.3498 11.3581L22.8965 13.1931ZM24.6069 9.66379C24.6069 8.28629 23.9651 7.03488 22.8965 6.13419L21.3498 7.96927C21.9368 8.46411 22.2069 9.06816 22.2069 9.66379H24.6069ZM22.8965 6.13419C21.8341 5.23866 20.4529 4.76969 19.0242 4.76969V7.16969C19.9364 7.16969 20.7566 7.46926 21.3498 7.96927L22.8965 6.13419Z" fill="white" mask="url(#path-11-inside-4_166_709)"/>
<mask id="path-13-inside-5_166_709" fill="white">
<path d="M20.9061 18.0054H7.66623C7.50227 18.0054 7.36963 17.8936 7.36963 17.7554C7.36963 17.6172 7.50227 17.5054 7.66623 17.5054H20.9061C21.0701 17.5054 21.2027 17.6172 21.2027 17.7554C21.2027 17.8936 21.0701 18.0054 20.9061 18.0054Z"/>
</mask>
<path d="M20.9061 16.8054H7.66623V19.2054H20.9061V16.8054ZM7.66623 16.8054C7.85346 16.8054 8.05672 16.8688 8.22982 17.0147C8.40567 17.1629 8.56963 17.4203 8.56963 17.7554H6.16963C6.16963 18.7404 7.03992 19.2054 7.66623 19.2054V16.8054ZM8.56963 17.7554C8.56963 18.0904 8.40567 18.3479 8.22982 18.4961C8.05672 18.642 7.85346 18.7054 7.66623 18.7054V16.3054C7.03992 16.3054 6.16963 16.7704 6.16963 17.7554H8.56963ZM7.66623 18.7054H20.9061V16.3054H7.66623V18.7054ZM20.9061 18.7054C20.7189 18.7054 20.5156 18.642 20.3425 18.4961C20.1667 18.3479 20.0027 18.0904 20.0027 17.7554H22.4027C22.4027 16.7704 21.5324 16.3054 20.9061 16.3054V18.7054ZM20.0027 17.7554C20.0027 17.4203 20.1667 17.1629 20.3425 17.0147C20.5156 16.8688 20.7189 16.8054 20.9061 16.8054V19.2054C21.5324 19.2054 22.4027 18.7404 22.4027 17.7554H20.0027Z" fill="white" mask="url(#path-13-inside-5_166_709)"/>
<path d="M12.0919 2.46676L11.6863 2.12487L11.2973 2.48555L10.6645 3.07228V0.85H12.9101V3.15637L12.0919 2.46676Z" stroke="white" stroke-width="1.2"/>
<mask id="path-16-inside-6_166_709" fill="white">
<path d="M10.0644 4.69677C10.0285 4.69677 9.99229 4.6914 9.95753 4.67993C9.84312 4.64283 9.76782 4.55007 9.76782 4.44677V0.25C9.76782 0.1118 9.90046 0 10.0644 0H13.5101C13.6741 0 13.8067 0.1118 13.8067 0.25V4.44677C13.8067 4.54783 13.7346 4.63913 13.6236 4.67773C13.5133 4.7173 13.3855 4.6953 13.3004 4.62353L11.7154 3.2876L10.284 4.615C10.2266 4.6682 10.1464 4.69677 10.0644 4.69677ZM11.7053 2.67553C11.7838 2.67553 11.8594 2.7019 11.915 2.74877L13.2135 3.84323V0.5H10.361V3.80003L11.4857 2.7573C11.5405 2.70677 11.6172 2.67723 11.6983 2.6755C11.7007 2.67553 11.703 2.67553 11.7053 2.67553Z"/>
</mask>
<path d="M9.95753 4.67993L10.3334 3.54032L10.3277 3.53845L9.95753 4.67993ZM13.6236 4.67773L13.2293 3.54434L13.2187 3.54812L13.6236 4.67773ZM11.7154 3.2876L12.4888 2.37006L11.6775 1.68622L10.8995 2.4077L11.7154 3.2876ZM10.284 4.615L9.46804 3.7351L9.46783 3.73529L10.284 4.615ZM11.915 2.74877L12.6884 1.83122L12.6881 1.83095L11.915 2.74877ZM13.2135 3.84323L12.4401 4.76078L14.4135 6.4241V3.84323H13.2135ZM13.2135 0.5H14.4135V-0.7H13.2135V0.5ZM10.361 0.5V-0.7H9.16103V0.5H10.361ZM10.361 3.80003H9.16103V6.54894L11.1769 4.68003L10.361 3.80003ZM11.4857 2.7573L10.6717 1.87562L10.6699 1.87731L11.4857 2.7573ZM11.6983 2.6755L11.7155 1.47562L11.6941 1.47532L11.6727 1.47577L11.6983 2.6755ZM10.0644 3.49677C10.1473 3.49677 10.2387 3.50908 10.3334 3.54033L9.58161 5.81953C9.74587 5.87372 9.90973 5.89677 10.0644 5.89677V3.49677ZM10.3277 3.53845C10.6026 3.6276 10.9678 3.92706 10.9678 4.44677H8.56782C8.56782 5.17308 9.08362 5.65806 9.58737 5.82142L10.3277 3.53845ZM10.9678 4.44677V0.25H8.56782V4.44677H10.9678ZM10.9678 0.25C10.9678 0.585023 10.8039 0.842504 10.628 0.990717C10.4549 1.13662 10.2517 1.2 10.0644 1.2V-1.2C9.43812 -1.2 8.56782 -0.73498 8.56782 0.25H10.9678ZM10.0644 1.2H13.5101V-1.2H10.0644V1.2ZM13.5101 1.2C13.3229 1.2 13.1196 1.13662 12.9465 0.990717C12.7707 0.842504 12.6067 0.585023 12.6067 0.25H15.0067C15.0067 -0.73498 14.1364 -1.2 13.5101 -1.2V1.2ZM12.6067 0.25V4.44677H15.0067V0.25H12.6067ZM12.6067 4.44677C12.6067 3.93916 12.9573 3.63901 13.2293 3.54439L14.018 5.81108C14.5118 5.63926 15.0067 5.15651 15.0067 4.44677H12.6067ZM13.2187 3.54812C13.4921 3.45012 13.817 3.48959 14.0738 3.70599L12.527 5.54108C12.954 5.90101 13.5344 5.98448 14.0286 5.80735L13.2187 3.54812ZM14.0738 3.70599L12.4888 2.37006L10.942 4.20514L12.527 5.54108L14.0738 3.70599ZM10.8995 2.4077L9.46804 3.7351L11.0999 5.4949L12.5314 4.1675L10.8995 2.4077ZM9.46783 3.73529C9.65856 3.55835 9.88136 3.49677 10.0644 3.49677V5.89677C10.4115 5.89677 10.7947 5.77805 11.1001 5.49471L9.46783 3.73529ZM11.7053 3.87553C11.5254 3.87553 11.3207 3.81714 11.142 3.66658L12.6881 1.83095C12.398 1.58666 12.0422 1.47553 11.7053 1.47553V3.87553ZM11.1416 3.66631L12.4401 4.76078L13.9869 2.92569L12.6884 1.83122L11.1416 3.66631ZM14.4135 3.84323V0.5H12.0135V3.84323H14.4135ZM13.2135 -0.7H10.361V1.7H13.2135V-0.7ZM9.16103 0.5V3.80003H11.561V0.5H9.16103ZM11.1769 4.68003L12.3016 3.63729L10.6699 1.87731L9.54517 2.92004L11.1769 4.68003ZM12.2998 3.63898C12.1194 3.80547 11.9074 3.87131 11.724 3.87523L11.6727 1.47577C11.327 1.48316 10.9615 1.60806 10.6717 1.87562L12.2998 3.63898ZM11.6812 3.87538C11.6936 3.87556 11.7047 3.87553 11.7053 3.87553V1.47553C11.7036 1.47553 11.7046 1.47553 11.7059 1.47554C11.7076 1.47554 11.711 1.47556 11.7155 1.47562L11.6812 3.87538Z" fill="white" mask="url(#path-16-inside-6_166_709)"/>
<mask id="path-18-inside-7_166_709" fill="white">
<path d="M18.2909 11.1902C18.215 11.1902 18.1391 11.1658 18.0812 11.117L16.5185 9.79982C16.4027 9.70216 16.4027 9.54396 16.5185 9.44632C16.6344 9.34869 16.8221 9.34866 16.9379 9.44632L18.2909 10.5867L21.1103 8.21046C21.2262 8.11279 21.4139 8.11279 21.5297 8.21046C21.6456 8.30812 21.6456 8.46632 21.5297 8.56396L18.5006 11.1169C18.4427 11.1658 18.3668 11.1902 18.2909 11.1902Z"/>
</mask>
<path d="M18.0812 11.117L18.8546 10.1994L18.8546 10.1994L18.0812 11.117ZM16.5185 9.79982L15.7452 10.7174L15.7452 10.7174L16.5185 9.79982ZM16.9379 9.44632L16.1644 10.3637L16.1646 10.3639L16.9379 9.44632ZM18.2909 10.5867L17.5175 11.5042L18.2908 12.1561L19.0642 11.5043L18.2909 10.5867ZM21.1103 8.21046L21.8837 9.12804L21.8837 9.128L21.1103 8.21046ZM21.5297 8.56396L20.7565 7.64628L20.7564 7.64638L21.5297 8.56396ZM18.5006 11.1169L17.7272 10.1993L17.7266 10.1999L18.5006 11.1169ZM18.2909 9.99019C18.4617 9.99019 18.6698 10.0437 18.8546 10.1994L17.3078 12.0345C17.6085 12.2879 17.9684 12.3902 18.2909 12.3902V9.99019ZM18.8546 10.1994L17.2919 8.88228L15.7452 10.7174L17.3078 12.0345L18.8546 10.1994ZM17.2919 8.88228C17.4862 9.04602 17.6316 9.30997 17.6316 9.62306C17.6316 9.93618 17.4862 10.2002 17.2918 10.364L15.7453 8.52865C15.4351 8.79007 15.2316 9.18202 15.2316 9.62306C15.2316 10.0641 15.435 10.456 15.7452 10.7174L17.2919 8.88228ZM17.2918 10.364C17.1072 10.5195 16.8992 10.5731 16.7283 10.5731C16.5574 10.5731 16.3492 10.5196 16.1644 10.3637L17.7115 8.52891C17.1485 8.05426 16.3077 8.05478 15.7453 8.52865L17.2918 10.364ZM16.1646 10.3639L17.5175 11.5042L19.0643 9.66915L17.7113 8.52878L16.1646 10.3639ZM19.0642 11.5043L21.8837 9.12804L20.337 7.29288L17.5175 9.66911L19.0642 11.5043ZM21.8837 9.128C21.6991 9.28363 21.491 9.33721 21.32 9.33721C21.1491 9.33721 20.9409 9.28363 20.7562 9.12787L22.3033 7.29304C21.7405 6.81853 20.8996 6.8187 20.337 7.29291L21.8837 9.128ZM20.7562 9.12787C20.562 8.96415 20.4166 8.70029 20.4166 8.38731C20.4166 8.07424 20.562 7.81015 20.7565 7.64628L22.303 9.48163C22.6133 9.22013 22.8167 8.82812 22.8166 8.38713C22.8166 7.94622 22.6133 7.55443 22.3033 7.29304L20.7562 9.12787ZM20.7564 7.64638L17.7272 10.1993L19.2739 12.0345L22.3031 9.48154L20.7564 7.64638ZM17.7266 10.1999C17.9115 10.0438 18.12 9.99019 18.2909 9.99019V12.3902C18.6136 12.3902 18.9739 12.2877 19.2746 12.0339L17.7266 10.1999Z" fill="white" mask="url(#path-18-inside-7_166_709)"/>
</g>
<defs>
<filter id="filter0_d_166_709" x="0" y="0" width="28" height="28" filterUnits="userSpaceOnUse" color-interpolation-filters="sRGB">
<feFlood flood-opacity="0" result="BackgroundImageFix"/>
<feColorMatrix in="SourceAlpha" type="matrix" values="0 0 0 0 0 0 0 0 0 0 0 0 0 0 0 0 0 0 127 0" result="hardAlpha"/>
<feOffset dy="4"/>
<feGaussianBlur stdDeviation="2"/>
<feComposite in2="hardAlpha" operator="out"/>
<feColorMatrix type="matrix" values="0 0 0 0 0 0 0 0 0 0 0 0 0 0 0 0 0 0 0.25 0"/>
<feBlend mode="normal" in2="BackgroundImageFix" result="effect1_dropShadow_166_709"/>
<feBlend mode="normal" in="SourceGraphic" in2="effect1_dropShadow_166_709" result="shape"/>
</filter>
</defs>
</svg>
