<svg width="22" height="10" viewBox="0 0 22 10" fill="none" xmlns="http://www.w3.org/2000/svg">
<path fill-rule="evenodd" clip-rule="evenodd" d="M0 4.97605C0 7.71015 2.17052 9.92476 4.87698 9.92476C6.96711 9.92476 8.76248 8.55772 9.4592 6.67119L15.8904 6.67119V8.36633C15.8904 10.4169 19.5347 10.4442 19.5347 8.36633V6.67119H20.2046C21.1961 6.67119 22 5.82362 22 4.81201C22 3.80039 21.1961 2.98016 20.2046 2.98016L9.4592 2.98016C9.19123 2.98016 8.17296 0 4.87698 0C2.17052 0 0 2.21462 0 4.97605ZM2.73325 4.97605C2.73325 6.17905 3.69793 7.16333 4.87698 7.16333C6.05603 7.16333 7.02071 6.17905 7.02071 4.97605C7.02071 3.77305 6.05603 2.78878 4.87698 2.78878C3.69793 2.78878 2.73325 3.77305 2.73325 4.97605Z" fill="#ADB5BD"/>
</svg>
