<svg width="74" height="49" viewBox="0 0 74 49" fill="none" xmlns="http://www.w3.org/2000/svg">
<path d="M49.6496 6.89032C50.0398 6.8129 50.1285 6.19355 49.7915 5.94193C48.8692 5.26452 47.3793 4.62581 46.1377 6.09677C44.1867 8.41935 45.6056 13.9355 44.2044 15.6968C44.2044 15.6968 44.9139 11.3419 44.5946 8.10968C44.3995 6.15484 45.1799 4.74193 46.2619 4.2C46.6698 3.9871 46.5634 3.25161 46.1022 3.2129C45.3396 3.17419 44.5592 3.46452 44.0093 4.52903C43.7078 5.10968 43.5482 5.76774 43.5482 6.46452C43.5304 7.4129 43.5127 9.13548 43.5659 10.1613C43.6369 11.6323 43.1934 14.4968 43.1934 14.4968C43.1934 14.4968 43.4063 11.7097 43.1934 8.82581C43.0161 6.54194 42.7323 4.16129 44.169 3.13548C44.5414 2.86452 44.3818 2.1871 43.9561 2.1871C43.087 2.1871 42.1292 2.59355 41.6504 4.18065C41.3843 5.07097 41.3843 6.01936 41.5972 6.92903C41.9519 8.41936 42.5017 11.4581 41.3666 12.7742C41.3666 12.7742 41.8632 9.23226 40.9232 6.71613C40.2846 4.99355 40.7813 3.32903 41.5794 2.20645C41.8632 1.8 41.5262 1.2 41.1183 1.39355C40.1073 1.83871 39.0786 3.03871 39.3978 6.07742C39.3978 6.07742 40.7103 10.9935 39.8235 12.0581C39.8235 12.0581 40.0718 8.14839 38.6174 6.07742C37.6064 4.62581 38.7593 2.53548 39.5397 1.4129C39.8235 1.02581 39.6461 0.406452 39.2382 0.290323C38.7238 0.135484 38.0676 0 37.5 0C36.9324 0 36.2762 0.154839 35.7618 0.290323C35.3539 0.406452 35.1765 1.02581 35.4603 1.4129C36.2584 2.55484 37.4113 4.62581 36.3826 6.07742C34.9282 8.14839 35.1765 12.0581 35.1765 12.0581C34.2897 10.9742 35.6022 6.07742 35.6022 6.07742C35.9214 3.03871 34.8927 1.83871 33.8817 1.39355C33.4738 1.21935 33.1368 1.8 33.4028 2.20645C34.1833 3.32903 34.6976 5.03226 34.0768 6.71613C33.1368 9.23226 33.6334 12.7742 33.6334 12.7742C32.4983 11.4581 33.0481 8.41936 33.4028 6.92903C33.6157 6.01936 33.6157 5.07097 33.3496 4.18065C32.8708 2.57419 31.913 2.1871 31.0439 2.1871C30.6182 2.1871 30.4586 2.86452 30.831 3.13548C32.2677 4.16129 31.9839 6.54194 31.8066 8.82581C31.5937 11.6903 31.8066 14.4968 31.8066 14.4968C31.8066 14.4968 31.3809 11.6323 31.4341 10.1613C31.4873 9.13548 31.4696 7.4129 31.4518 6.46452C31.4341 5.7871 31.2922 5.10968 30.9907 4.52903C30.4408 3.46452 29.6604 3.17419 28.8978 3.2129C28.4543 3.23226 28.3302 3.9871 28.7381 4.2C29.8201 4.76129 30.6005 6.1742 30.4054 8.10968C30.0861 11.3226 30.7956 15.6968 30.7956 15.6968C29.4121 13.9161 30.8133 8.4 28.8623 6.09677C27.6385 4.62581 26.1486 5.26452 25.2085 5.94193C24.8716 6.17419 24.9602 6.79355 25.3504 6.89032C26.929 7.23871 29.7314 8.41936 29.2525 12.271C28.5962 17.5935 31.0616 18 31.0616 18C31.8598 16.4323 32.7998 15.329 33.7044 14.5742C35.9747 12.6581 38.9899 12.6581 41.2602 14.5742C42.1647 15.3484 43.1048 16.4323 43.9029 18C43.9029 18 46.3506 17.5742 45.712 12.271C45.2864 8.41936 48.071 7.25807 49.6496 6.89032Z" fill="#B51E59"/>
<path d="M42.8574 18.7484L41.4788 16.8119L40.1001 18.7484L40.7033 19.5666C41.1341 20.1666 41.845 20.1666 42.2973 19.5666L42.8574 18.7484Z" fill="#768B63"/>
<path d="M41.9096 25.3487L42.8574 24.0123L41.4788 22.0758L40.1001 24.0123L41.0479 25.3487C41.2849 25.676 41.6726 25.676 41.9096 25.3487Z" fill="#768B63"/>
<path d="M38.1396 25.3487L39.0874 24.0123L37.7087 22.0758L36.3301 24.0123L37.2779 25.3487C37.5149 25.676 37.9026 25.676 38.1396 25.3487Z" fill="#768B63"/>
<path d="M40.3587 27.5307L40.9834 26.6579L39.6047 24.7214L38.2261 26.6579L38.8508 27.5307C39.2601 28.1034 39.9279 28.1034 40.3587 27.5307Z" fill="#768B63"/>
<path d="M34.4346 16.1027L34.9946 16.8937C35.447 17.521 36.201 17.521 36.6534 16.8937L37.2134 16.1027L35.8348 14.1663L34.4346 16.1027Z" fill="#768B63"/>
<path d="M32.2312 18.8147L31.6496 17.9965C31.6065 18.1601 31.5419 18.351 31.4772 18.4874C31.2834 18.9511 31.0464 19.742 30.8525 20.7239L32.2312 18.8147Z" fill="#768B63"/>
<path d="M31.2897 27.5307C31.7205 28.1307 32.3883 28.1307 32.8191 27.5307L33.4438 26.6579L32.0652 24.7214L30.6865 26.6579L31.2897 27.5307Z" fill="#768B63"/>
<path d="M31.5211 22.4332C31.9445 23.0466 32.613 23.0466 33.0364 22.4332L33.7049 21.4693L32.2787 19.3955L30.8525 21.4693L31.5211 22.4332Z" fill="#768B63"/>
<path d="M35.3179 18.7484L33.9392 16.8119L32.5605 18.7484L33.1637 19.5666C33.5945 20.1666 34.3054 20.1666 34.7578 19.5666L35.3179 18.7484Z" fill="#768B63"/>
<path d="M44.7815 20.7239C44.5876 19.742 44.3507 18.9511 44.1568 18.4874C44.0922 18.3237 44.0275 18.1601 43.9845 17.9965L43.4028 18.8147L44.7815 20.7239Z" fill="#768B63"/>
<path d="M31.1493 25.4666L32.0971 24.1302L30.7184 22.1937L30.4169 22.6028C30.3092 23.5029 30.2661 24.4848 30.2876 25.4666C30.5246 25.7939 30.9123 25.7939 31.1493 25.4666Z" fill="#768B63"/>
<path d="M45.0294 22.6004L44.8398 22.1937L43.9731 24.1188L44.569 25.4474C44.718 25.7728 44.9617 25.7728 45.1107 25.4474C45.1242 24.4713 45.0972 23.4952 45.0294 22.6004Z" fill="#768B63"/>
<path d="M34.6501 30.2035L35.3179 29.2762L33.9392 27.3397L32.5605 29.2762L33.2283 30.2035C33.5945 30.7763 34.2623 30.7763 34.6501 30.2035Z" fill="#768B63"/>
<path d="M36.3086 34.5401L36.3517 34.6219C36.7825 34.7038 37.2133 34.7583 37.6873 34.7856C38.1612 34.7583 38.6135 34.7038 39.0228 34.6219L39.0659 34.5401L37.6873 32.6036L36.3086 34.5401Z" fill="#768B63"/>
<path d="M44.7534 21.3666L43.3748 19.4302L41.9961 21.3666L42.6423 22.2667C43.0516 22.8394 43.6979 22.8394 44.1072 22.2667L44.7534 21.3666Z" fill="#768B63"/>
<path d="M36.5456 22.2939L37.1919 21.3939L35.8132 19.4574L34.4346 21.3939L35.0808 22.2939C35.4901 22.8667 36.1364 22.8667 36.5456 22.2939Z" fill="#768B63"/>
<path d="M33.5084 25.3487C33.7453 25.676 34.1331 25.676 34.37 25.3487L35.3179 24.0123L33.9392 22.0758L32.5605 24.0123L33.5084 25.3487Z" fill="#768B63"/>
<path d="M38.5062 19.5666L39.1094 18.7484L37.7307 16.8119L36.3521 18.7484L36.9552 19.5666C37.343 20.1939 38.0538 20.1939 38.5062 19.5666Z" fill="#768B63"/>
<path d="M36.5887 27.5307L37.2134 26.6579L35.8347 24.7214L34.4561 26.6579L35.0808 27.5307C35.4685 28.1034 36.1578 28.1034 36.5887 27.5307Z" fill="#768B63"/>
<path d="M40.3372 22.2939L40.9834 21.3939L39.6047 19.4574L38.2261 21.3939L38.8723 22.2939C39.2601 22.8667 39.9279 22.8667 40.3372 22.2939Z" fill="#768B63"/>
<path d="M38.2041 16.1027L38.7642 16.8937C39.2166 17.521 39.9705 17.521 40.4229 16.8937L40.983 16.1027L39.6043 14.1663L38.2041 16.1027Z" fill="#768B63"/>
<path d="M30.4364 27.0906L30.2822 27.4372C30.4056 28.5401 30.5906 29.6115 30.8681 30.5883L31.4232 29.3279L30.4364 27.0906Z" fill="#768B63"/>
<path d="M32.0437 29.9854L31.2036 31.1581C31.5914 31.8127 32.0868 32.4127 32.7115 32.931L33.4439 31.8945L32.0437 29.9854Z" fill="#768B63"/>
<path d="M33.3359 33.4491C33.8529 33.8036 34.4561 34.1037 35.1454 34.3219L33.9391 32.6309L33.3359 33.4491Z" fill="#768B63"/>
<path d="M40.2725 34.2946C40.9403 34.0764 41.5434 33.7764 42.082 33.4219L41.5003 32.6036L40.2725 34.2946Z" fill="#768B63"/>
<path d="M41.9741 31.9218L42.7065 32.9582C43.3097 32.44 43.8052 31.8399 44.2144 31.1854L43.3743 30.0126L41.9741 31.9218Z" fill="#768B63"/>
<path d="M43.9731 29.3279L44.5282 30.5883C44.8057 29.6115 45.0062 28.5401 45.1141 27.4372L44.9599 27.0906L43.9731 29.3279Z" fill="#768B63"/>
<path d="M42.2111 30.2035L42.8789 29.2762L41.5002 27.3397L40.1216 29.2762L40.7894 30.2035C41.1556 30.7763 41.8018 30.7763 42.2111 30.2035Z" fill="#768B63"/>
<path d="M44.1287 27.5307L44.7534 26.6579L43.3748 24.7214L41.9961 26.6579L42.6208 27.5307C43.0301 28.1034 43.6979 28.1034 44.1287 27.5307Z" fill="#768B63"/>
<path d="M38.4416 30.2035L39.1094 29.2762L37.7307 27.3397L36.3521 29.2762L37.0198 30.2035C37.386 30.7763 38.0323 30.7763 38.4416 30.2035Z" fill="#768B63"/>
<path d="M40.9834 31.9218L39.6047 29.9854L38.2261 31.9218L38.7215 32.6309C39.217 33.3128 39.9925 33.3128 40.4879 32.6309L40.9834 31.9218Z" fill="#768B63"/>
<path d="M37.2134 31.9218L35.8347 29.9854L34.4561 31.9218L34.9515 32.6309C35.447 33.3128 36.2225 33.3128 36.7179 32.6309L37.2134 31.9218Z" fill="#768B63"/>
<path d="M40.4056 36.5739C40.4056 36.5739 42.718 38.7799 47.8925 39.5911C47.8925 39.5911 50.3148 41.0502 48.3421 42.0691C48.3421 42.0691 53.5974 41.4849 52.344 40.4755C52.344 40.4755 57.2416 41.9096 56.0752 42.8639C56.0752 42.8639 59.4945 42.0363 58.7699 41.212C58.7699 41.212 62.8619 43.2261 58.887 44.3841C58.887 44.3841 62.3352 44.1163 62.8898 43.2349C62.8898 43.2349 66.3704 45.5085 61.2275 46.7322C61.2275 46.7322 66.2053 46.4598 66.6199 45.0634C66.6199 45.0634 68.5992 47.5903 62.6498 48.8164C62.6498 48.8164 73.9669 47.6011 70.1772 43.6667C70.1772 43.6667 74.3499 44.152 73.9623 45.104C73.9623 45.104 74.7642 42.6223 68.0043 41.6913C68.0043 41.6913 73.2328 41.6226 73.9846 42.1181C73.9846 42.1181 69.9761 40.1926 62.8284 40.1336C62.8284 40.1336 68.0011 39.9762 69.9762 40.1926C69.9762 40.1926 66.2465 38.6484 58.7933 38.7948C58.7933 38.7948 62.9369 38.6582 66.2465 38.6484C66.2465 38.6484 59.8472 37.2098 53.396 37.8598C53.396 37.8598 55.8696 36.9638 59.8472 37.2098C59.8472 37.2098 55.007 36.7176 47.9152 36.8006C40.7956 36.8927 40.4056 36.5739 40.4056 36.5739Z" fill="#768B63"/>
<path d="M33.5705 36.5037C33.5705 36.5037 31.2663 38.7232 26.0948 39.5649C26.0948 39.5649 23.6779 41.0383 25.6544 42.0456C25.6544 42.0456 20.397 41.4923 21.6466 40.4755C21.6466 40.4755 16.7545 41.9385 17.9243 42.8859C17.9243 42.8859 14.502 42.0784 15.2236 41.2498C15.2236 41.2498 11.139 43.288 15.1182 44.4226C15.1182 44.4226 11.6691 44.1751 11.1112 43.2969C11.1112 43.2969 7.63898 45.591 12.7864 46.7844C12.7864 46.7844 7.8076 46.5414 7.38785 45.1474C7.38785 45.1474 5.4179 47.6859 11.3718 48.877C11.3718 48.877 0.0503199 47.7284 3.82541 43.7716C3.82541 43.7716 -0.345402 44.2815 0.0457155 45.2313C0.0457155 45.2313 -0.765409 42.7543 5.99105 41.7835C5.99105 41.7835 0.762373 41.7456 0.0123799 42.2455C0.0123799 42.2455 4.01368 40.2964 11.1611 40.1954C11.1611 40.1954 5.98789 40.0684 4.01368 40.2964C4.01368 40.2964 7.73756 38.7303 15.1913 38.8328C15.1913 38.8328 11.0471 38.7206 7.73755 38.7303C7.73755 38.7303 14.1315 37.2541 20.585 37.866C20.585 37.866 18.1081 36.9847 14.1315 37.2541C14.1315 37.2541 18.9698 36.7333 26.0619 36.7746C33.1818 36.8247 33.5705 36.5037 33.5705 36.5037Z" fill="#768B63"/>
</svg>
