<svg width="268" height="70" viewBox="0 0 268 70" fill="none" xmlns="http://www.w3.org/2000/svg">
<g clip-path="url(#clip0_585_1442)">
<path d="M7.3939 14.7844H-0.0258789V21.7384H7.3939V14.7844Z" fill="#39543A"/>
<path d="M14.8138 14.7844H7.39404V21.7384H14.8138V14.7844Z" fill="#050C0E"/>
<path d="M22.2333 14.7844H14.8135V21.7384H22.2333V14.7844Z" fill="#39543A"/>
<path d="M29.6532 14.7844H22.2334V21.7384H29.6532V14.7844Z" fill="#8D985D"/>
<path d="M37.0731 14.7844H29.6533V21.7384H37.0731V14.7844Z" fill="#8D985D"/>
<path d="M44.4925 14.7844H37.0728V21.7384H44.4925V14.7844Z" fill="#39543A"/>
<path d="M51.9125 14.7844H44.4927V21.7384H51.9125V14.7844Z" fill="#39543A"/>
<path d="M59.3324 14.7844H51.9126V21.7384H59.3324V14.7844Z" fill="#050C0E"/>
<path d="M66.7523 14.7844H59.3325V21.7384H66.7523V14.7844Z" fill="#050C0E"/>
<path d="M74.1717 14.7844H66.752V21.7384H74.1717V14.7844Z" fill="#8D985D"/>
<path d="M81.5917 14.7844H74.1719V21.7384H81.5917V14.7844Z" fill="#39543A"/>
<path d="M89.0116 14.7844H81.5918V21.7384H89.0116V14.7844Z" fill="#39543A"/>
<path d="M96.431 14.7844H89.0112V21.7384H96.431V14.7844Z" fill="#39543A"/>
<path d="M103.851 14.7844H96.4312V21.7384H103.851V14.7844Z" fill="#8D985D"/>
<path d="M111.271 14.7844H103.851V21.7384H111.271V14.7844Z" fill="#39543A"/>
<path d="M118.691 14.7844H111.271V21.7384H118.691V14.7844Z" fill="#39543A"/>
<path d="M126.11 14.7844H118.69V21.7384H126.11V14.7844Z" fill="#39543A"/>
<path d="M133.53 14.7844H126.11V21.7384H133.53V14.7844Z" fill="#8D985D"/>
<path d="M140.95 14.7844H133.53V21.7384H140.95V14.7844Z" fill="#8D985D"/>
<path d="M148.369 14.7844H140.95V21.7384H148.369V14.7844Z" fill="#39543A"/>
<path d="M155.789 14.7844H148.37V21.7384H155.789V14.7844Z" fill="#050C0E"/>
<path d="M163.209 14.7844H155.79V21.7384H163.209V14.7844Z" fill="#050C0E"/>
<path d="M170.629 14.7844H163.209V21.7384H170.629V14.7844Z" fill="#39543A"/>
<path d="M178.049 14.7844H170.629V21.7384H178.049V14.7844Z" fill="#8D985D"/>
<path d="M185.469 14.7844H178.049V21.7384H185.469V14.7844Z" fill="#39543A"/>
<path d="M192.889 14.7844H185.469V21.7384H192.889V14.7844Z" fill="#39543A"/>
<path d="M200.308 14.7844H192.888V21.7384H200.308V14.7844Z" fill="#050C0E"/>
<path d="M207.728 14.7844H200.308V21.7384H207.728V14.7844Z" fill="#050C0E"/>
<path d="M215.148 14.7844H207.728V21.7384H215.148V14.7844Z" fill="#050C0E"/>
<path d="M7.3939 21.7383H-0.0258789V28.6924H7.3939V21.7383Z" fill="#39543A"/>
<path d="M14.8138 21.7383H7.39404V28.6924H14.8138V21.7383Z" fill="#8D985D"/>
<path d="M22.2333 21.7383H14.8135V28.6924H22.2333V21.7383Z" fill="#39543A"/>
<path d="M29.6532 21.7383H22.2334V28.6924H29.6532V21.7383Z" fill="#39543A"/>
<path d="M37.0731 21.7383H29.6533V28.6924H37.0731V21.7383Z" fill="#39543A"/>
<path d="M44.4925 21.7383H37.0728V28.6924H44.4925V21.7383Z" fill="#39543A"/>
<path d="M51.9125 21.7383H44.4927V28.6924H51.9125V21.7383Z" fill="#39543A"/>
<path d="M59.3324 21.7383H51.9126V28.6924H59.3324V21.7383Z" fill="#050C0E"/>
<path d="M66.7523 21.7383H59.3325V28.6924H66.7523V21.7383Z" fill="#8D985D"/>
<path d="M74.1717 21.7383H66.752V28.6924H74.1717V21.7383Z" fill="#8D985D"/>
<path d="M81.5917 21.7383H74.1719V28.6924H81.5917V21.7383Z" fill="#39543A"/>
<path d="M89.0116 21.7383H81.5918V28.6924H89.0116V21.7383Z" fill="#39543A"/>
<path d="M96.431 21.7383H89.0112V28.6924H96.431V21.7383Z" fill="#39543A"/>
<path d="M103.851 21.7383H96.4312V28.6924H103.851V21.7383Z" fill="#8D985D"/>
<path d="M111.271 21.7383H103.851V28.6924H111.271V21.7383Z" fill="#8D985D"/>
<path d="M118.691 21.7383H111.271V28.6924H118.691V21.7383Z" fill="#39543A"/>
<path d="M126.11 21.7383H118.69V28.6924H126.11V21.7383Z" fill="#39543A"/>
<path d="M133.53 21.7383H126.11V28.6924H133.53V21.7383Z" fill="#8D985D"/>
<path d="M140.95 21.7383H133.53V28.6924H140.95V21.7383Z" fill="#39543A"/>
<path d="M148.369 21.7383H140.95V28.6924H148.369V21.7383Z" fill="#39543A"/>
<path d="M155.789 21.7383H148.37V28.6924H155.789V21.7383Z" fill="#8D985D"/>
<path d="M163.209 21.7383H155.79V28.6924H163.209V21.7383Z" fill="#39543A"/>
<path d="M170.629 21.7383H163.209V28.6924H170.629V21.7383Z" fill="#8D985D"/>
<path d="M178.049 21.7383H170.629V28.6924H178.049V21.7383Z" fill="#8D985D"/>
<path d="M185.469 21.7383H178.049V28.6924H185.469V21.7383Z" fill="#39543A"/>
<path d="M192.889 21.7383H185.469V28.6924H192.889V21.7383Z" fill="#8D985D"/>
<path d="M200.308 21.7383H192.888V28.6924H200.308V21.7383Z" fill="#8D985D"/>
<path d="M207.728 21.7383H200.308V28.6924H207.728V21.7383Z" fill="#050C0E"/>
<path d="M215.148 21.7383H207.728V28.6924H215.148V21.7383Z" fill="#050C0E"/>
<path d="M7.3939 28.6924H-0.0258789V35.6464H7.3939V28.6924Z" fill="#8D985D"/>
<path d="M14.8138 28.6924H7.39404V35.6464H14.8138V28.6924Z" fill="#050C0E"/>
<path d="M22.2333 28.6924H14.8135V35.6464H22.2333V28.6924Z" fill="#8D985D"/>
<path d="M29.6532 28.6924H22.2334V35.6464H29.6532V28.6924Z" fill="#39543A"/>
<path d="M37.0731 28.6924H29.6533V35.6464H37.0731V28.6924Z" fill="#8D985D"/>
<path d="M44.4925 28.6924H37.0728V35.6464H44.4925V28.6924Z" fill="#8D985D"/>
<path d="M51.9125 28.6924H44.4927V35.6464H51.9125V28.6924Z" fill="#39543A"/>
<path d="M59.3324 28.6924H51.9126V35.6464H59.3324V28.6924Z" fill="#8D985D"/>
<path d="M66.7523 28.6924H59.3325V35.6464H66.7523V28.6924Z" fill="#8D985D"/>
<path d="M74.1717 28.6924H66.752V35.6464H74.1717V28.6924Z" fill="#39543A"/>
<path d="M81.5917 28.6924H74.1719V35.6464H81.5917V28.6924Z" fill="#050C0E"/>
<path d="M89.0116 28.6924H81.5918V35.6464H89.0116V28.6924Z" fill="#050C0E"/>
<path d="M96.431 28.6924H89.0112V35.6464H96.431V28.6924Z" fill="#050C0E"/>
<path d="M103.851 28.6924H96.4312V35.6464H103.851V28.6924Z" fill="#050C0E"/>
<path d="M111.271 28.6924H103.851V35.6464H111.271V28.6924Z" fill="#8D985D"/>
<path d="M118.691 28.6924H111.271V35.6464H118.691V28.6924Z" fill="#8D985D"/>
<path d="M126.11 28.6924H118.69V35.6464H126.11V28.6924Z" fill="#8D985D"/>
<path d="M133.53 28.6924H126.11V35.6464H133.53V28.6924Z" fill="#39543A"/>
<path d="M140.95 28.6924H133.53V35.6464H140.95V28.6924Z" fill="#39543A"/>
<path d="M148.369 28.6924H140.95V35.6464H148.369V28.6924Z" fill="#8D985D"/>
<path d="M155.789 28.6924H148.37V35.6464H155.789V28.6924Z" fill="#8D985D"/>
<path d="M163.209 28.6924H155.79V35.6464H163.209V28.6924Z" fill="#39543A"/>
<path d="M170.629 28.6924H163.209V35.6464H170.629V28.6924Z" fill="#39543A"/>
<path d="M178.049 28.6924H170.629V35.6464H178.049V28.6924Z" fill="#39543A"/>
<path d="M185.469 28.6924H178.049V35.6464H185.469V28.6924Z" fill="#39543A"/>
<path d="M192.889 28.6924H185.469V35.6464H192.889V28.6924Z" fill="#39543A"/>
<path d="M200.308 28.6924H192.888V35.6464H200.308V28.6924Z" fill="#8D985D"/>
<path d="M207.728 28.6924H200.308V35.6464H207.728V28.6924Z" fill="#050C0E"/>
<path d="M215.148 28.6924H207.728V35.6464H215.148V28.6924Z" fill="#050C0E"/>
<path d="M7.3939 35.6464H-0.0258789V42.6004H7.3939V35.6464Z" fill="#8D985D"/>
<path d="M14.8138 35.6464H7.39404V42.6004H14.8138V35.6464Z" fill="#050C0E"/>
<path d="M22.2333 35.6464H14.8135V42.6004H22.2333V35.6464Z" fill="#050C0E"/>
<path d="M29.6532 35.6464H22.2334V42.6004H29.6532V35.6464Z" fill="#050C0E"/>
<path d="M37.0731 35.6464H29.6533V42.6004H37.0731V35.6464Z" fill="#050C0E"/>
<path d="M44.4925 35.6464H37.0728V42.6004H44.4925V35.6464Z" fill="#39543A"/>
<path d="M51.9125 35.6464H44.4927V42.6004H51.9125V35.6464Z" fill="#8D985D"/>
<path d="M59.3324 35.6464H51.9126V42.6004H59.3324V35.6464Z" fill="#8D985D"/>
<path d="M66.7523 35.6464H59.3325V42.6004H66.7523V35.6464Z" fill="#39543A"/>
<path d="M74.1717 35.6464H66.752V42.6004H74.1717V35.6464Z" fill="#050C0E"/>
<path d="M81.5917 35.6464H74.1719V42.6004H81.5917V35.6464Z" fill="#050C0E"/>
<path d="M89.0116 35.6464H81.5918V42.6004H89.0116V35.6464Z" fill="#050C0E"/>
<path d="M96.431 35.6464H89.0112V42.6004H96.431V35.6464Z" fill="#39543A"/>
<path d="M103.851 35.6464H96.4312V42.6004H103.851V35.6464Z" fill="#8D985D"/>
<path d="M111.271 35.6464H103.851V42.6004H111.271V35.6464Z" fill="#8D985D"/>
<path d="M118.691 35.6464H111.271V42.6004H118.691V35.6464Z" fill="#8D985D"/>
<path d="M126.11 35.6464H118.69V42.6004H126.11V35.6464Z" fill="#39543A"/>
<path d="M133.53 35.6464H126.11V42.6004H133.53V35.6464Z" fill="#8D985D"/>
<path d="M140.95 35.6464H133.53V42.6004H140.95V35.6464Z" fill="#8D985D"/>
<path d="M148.369 35.6464H140.95V42.6004H148.369V35.6464Z" fill="#050C0E"/>
<path d="M155.789 35.6464H148.37V42.6004H155.789V35.6464Z" fill="#050C0E"/>
<path d="M163.209 35.6464H155.79V42.6004H163.209V35.6464Z" fill="#8D985D"/>
<path d="M170.629 35.6464H163.209V42.6004H170.629V35.6464Z" fill="#39543A"/>
<path d="M178.049 35.6464H170.629V42.6004H178.049V35.6464Z" fill="#39543A"/>
<path d="M185.469 35.6464H178.049V42.6004H185.469V35.6464Z" fill="#8D985D"/>
<path d="M192.889 35.6464H185.469V42.6004H192.889V35.6464Z" fill="#050C0E"/>
<path d="M200.308 35.6464H192.888V42.6004H200.308V35.6464Z" fill="#050C0E"/>
<path d="M207.728 35.6464H200.308V42.6004H207.728V35.6464Z" fill="#050C0E"/>
<path d="M215.148 35.6464H207.728V42.6004H215.148V35.6464Z" fill="#050C0E"/>
<path d="M7.3939 -6.03418H-0.0258789V0.919821H7.3939V-6.03418Z" fill="#39543A"/>
<path d="M14.8138 -6.03418H7.39404V0.919821H14.8138V-6.03418Z" fill="#39543A"/>
<path d="M22.2333 -6.03418H14.8135V0.919821H22.2333V-6.03418Z" fill="#39543A"/>
<path d="M29.6532 -6.03418H22.2334V0.919821H29.6532V-6.03418Z" fill="#050C0E"/>
<path d="M37.0731 -6.03418H29.6533V0.919821H37.0731V-6.03418Z" fill="#39543A"/>
<path d="M44.4925 -6.03418H37.0728V0.919821H44.4925V-6.03418Z" fill="#8D985D"/>
<path d="M51.9125 -6.03418H44.4927V0.919821H51.9125V-6.03418Z" fill="#8D985D"/>
<path d="M59.3324 -6.03418H51.9126V0.919821H59.3324V-6.03418Z" fill="#39543A"/>
<path d="M66.7523 -6.03418H59.3325V0.919821H66.7523V-6.03418Z" fill="#39543A"/>
<path d="M74.1717 -6.03418H66.752V0.919821H74.1717V-6.03418Z" fill="#39543A"/>
<path d="M81.5917 -6.03418H74.1719V0.919821H81.5917V-6.03418Z" fill="#8D985D"/>
<path d="M89.0116 -6.03418H81.5918V0.919821H89.0116V-6.03418Z" fill="#8D985D"/>
<path d="M96.431 -6.03418H89.0112V0.919821H96.431V-6.03418Z" fill="#8D985D"/>
<path d="M103.851 -6.03418H96.4312V0.919821H103.851V-6.03418Z" fill="#8D985D"/>
<path d="M111.271 -6.03418H103.851V0.919821H111.271V-6.03418Z" fill="#39543A"/>
<path d="M118.691 -6.03418H111.271V0.919821H118.691V-6.03418Z" fill="#39543A"/>
<path d="M126.11 -6.03418H118.69V0.919821H126.11V-6.03418Z" fill="#050C0E"/>
<path d="M133.53 -6.03418H126.11V0.919821H133.53V-6.03418Z" fill="#050C0E"/>
<path d="M140.95 -6.03418H133.53V0.919821H140.95V-6.03418Z" fill="#8D985D"/>
<path d="M148.369 -6.03418H140.95V0.919821H148.369V-6.03418Z" fill="#8D985D"/>
<path d="M155.789 -6.03418H148.37V0.919821H155.789V-6.03418Z" fill="#39543A"/>
<path d="M163.209 -6.03418H155.79V0.919821H163.209V-6.03418Z" fill="#050C0E"/>
<path d="M170.629 -6.03418H163.209V0.919821H170.629V-6.03418Z" fill="#050C0E"/>
<path d="M178.049 -6.03418H170.629V0.919821H178.049V-6.03418Z" fill="#050C0E"/>
<path d="M185.469 -6.03418H178.049V0.919821H185.469V-6.03418Z" fill="#050C0E"/>
<path d="M192.889 -6.03418H185.469V0.919821H192.889V-6.03418Z" fill="#8D985D"/>
<path d="M200.308 -6.03418H192.888V0.919821H200.308V-6.03418Z" fill="#39543A"/>
<path d="M207.728 -6.03418H200.308V0.919821H207.728V-6.03418Z" fill="#8D985D"/>
<path d="M215.148 -6.03418H207.728V0.919821H215.148V-6.03418Z" fill="#39543A"/>
<path d="M7.3939 0.919739H-0.0258789V7.87376H7.3939V0.919739Z" fill="#8D985D"/>
<path d="M14.8138 0.919739H7.39404V7.87376H14.8138V0.919739Z" fill="#39543A"/>
<path d="M22.2333 0.919739H14.8135V7.87376H22.2333V0.919739Z" fill="#8D985D"/>
<path d="M29.6532 0.919739H22.2334V7.87376H29.6532V0.919739Z" fill="#39543A"/>
<path d="M37.0731 0.919739H29.6533V7.87376H37.0731V0.919739Z" fill="#8D985D"/>
<path d="M44.4925 0.919739H37.0728V7.87376H44.4925V0.919739Z" fill="#39543A"/>
<path d="M51.9125 0.919739H44.4927V7.87376H51.9125V0.919739Z" fill="#8D985D"/>
<path d="M59.3324 0.919739H51.9126V7.87376H59.3324V0.919739Z" fill="#050C0E"/>
<path d="M66.7523 0.919739H59.3325V7.87376H66.7523V0.919739Z" fill="#8D985D"/>
<path d="M74.1717 0.919739H66.752V7.87376H74.1717V0.919739Z" fill="#8D985D"/>
<path d="M81.5917 0.919739H74.1719V7.87376H81.5917V0.919739Z" fill="#39543A"/>
<path d="M89.0116 0.919739H81.5918V7.87376H89.0116V0.919739Z" fill="#8D985D"/>
<path d="M96.431 0.919739H89.0112V7.87376H96.431V0.919739Z" fill="#8D985D"/>
<path d="M103.851 0.919739H96.4312V7.87376H103.851V0.919739Z" fill="#39543A"/>
<path d="M111.271 0.919739H103.851V7.87376H111.271V0.919739Z" fill="#39543A"/>
<path d="M118.691 0.919739H111.271V7.87376H118.691V0.919739Z" fill="#39543A"/>
<path d="M126.11 0.919739H118.69V7.87376H126.11V0.919739Z" fill="#39543A"/>
<path d="M133.53 0.919739H126.11V7.87376H133.53V0.919739Z" fill="#39543A"/>
<path d="M140.95 0.919739H133.53V7.87376H140.95V0.919739Z" fill="#39543A"/>
<path d="M148.369 0.919739H140.95V7.87376H148.369V0.919739Z" fill="#39543A"/>
<path d="M155.789 0.919739H148.37V7.87376H155.789V0.919739Z" fill="#39543A"/>
<path d="M163.209 0.919739H155.79V7.87376H163.209V0.919739Z" fill="#8D985D"/>
<path d="M170.629 0.919739H163.209V7.87376H170.629V0.919739Z" fill="#8D985D"/>
<path d="M178.049 0.919739H170.629V7.87376H178.049V0.919739Z" fill="#8D985D"/>
<path d="M185.469 0.919739H178.049V7.87376H185.469V0.919739Z" fill="#39543A"/>
<path d="M192.889 0.919739H185.469V7.87376H192.889V0.919739Z" fill="#39543A"/>
<path d="M200.308 0.919739H192.888V7.87376H200.308V0.919739Z" fill="#8D985D"/>
<path d="M207.728 0.919739H200.308V7.87376H207.728V0.919739Z" fill="#8D985D"/>
<path d="M215.148 0.919739H207.728V7.87376H215.148V0.919739Z" fill="#050C0E"/>
<path d="M7.3939 7.87378H-0.0258789V14.8278H7.3939V7.87378Z" fill="#39543A"/>
<path d="M14.8138 7.87378H7.39404V14.8278H14.8138V7.87378Z" fill="#39543A"/>
<path d="M22.2333 7.87378H14.8135V14.8278H22.2333V7.87378Z" fill="#050C0E"/>
<path d="M29.6532 7.87378H22.2334V14.8278H29.6532V7.87378Z" fill="#39543A"/>
<path d="M37.0731 7.87378H29.6533V14.8278H37.0731V7.87378Z" fill="#8D985D"/>
<path d="M44.4925 7.87378H37.0728V14.8278H44.4925V7.87378Z" fill="#8D985D"/>
<path d="M51.9125 7.87378H44.4927V14.8278H51.9125V7.87378Z" fill="#39543A"/>
<path d="M59.3324 7.87378H51.9126V14.8278H59.3324V7.87378Z" fill="#050C0E"/>
<path d="M66.7523 7.87378H59.3325V14.8278H66.7523V7.87378Z" fill="#050C0E"/>
<path d="M74.1717 7.87378H66.752V14.8278H74.1717V7.87378Z" fill="#8D985D"/>
<path d="M81.5917 7.87378H74.1719V14.8278H81.5917V7.87378Z" fill="#8D985D"/>
<path d="M89.0116 7.87378H81.5918V14.8278H89.0116V7.87378Z" fill="#050C0E"/>
<path d="M96.431 7.87378H89.0112V14.8278H96.431V7.87378Z" fill="#39543A"/>
<path d="M103.851 7.87378H96.4312V14.8278H103.851V7.87378Z" fill="#39543A"/>
<path d="M111.271 7.87378H103.851V14.8278H111.271V7.87378Z" fill="#39543A"/>
<path d="M118.691 7.87378H111.271V14.8278H118.691V7.87378Z" fill="#8D985D"/>
<path d="M126.11 7.87378H118.69V14.8278H126.11V7.87378Z" fill="#8D985D"/>
<path d="M133.53 7.87378H126.11V14.8278H133.53V7.87378Z" fill="#39543A"/>
<path d="M140.95 7.87378H133.53V14.8278H140.95V7.87378Z" fill="#39543A"/>
<path d="M148.369 7.87378H140.95V14.8278H148.369V7.87378Z" fill="#050C0E"/>
<path d="M155.789 7.87378H148.37V14.8278H155.789V7.87378Z" fill="#050C0E"/>
<path d="M163.209 7.87378H155.79V14.8278H163.209V7.87378Z" fill="#39543A"/>
<path d="M170.629 7.87378H163.209V14.8278H170.629V7.87378Z" fill="#39543A"/>
<path d="M178.049 7.87378H170.629V14.8278H178.049V7.87378Z" fill="#39543A"/>
<path d="M185.469 7.87378H178.049V14.8278H185.469V7.87378Z" fill="#8D985D"/>
<path d="M192.889 7.87378H185.469V14.8278H192.889V7.87378Z" fill="#8D985D"/>
<path d="M200.308 7.87378H192.888V14.8278H200.308V7.87378Z" fill="#8D985D"/>
<path d="M207.728 7.87378H200.308V14.8278H207.728V7.87378Z" fill="#8D985D"/>
<path d="M215.148 7.87378H207.728V14.8278H215.148V7.87378Z" fill="#39543A"/>
<path d="M244.827 35.6464H237.407V42.6004H244.827V35.6464Z" fill="#39543A"/>
<path d="M237.407 35.6464H229.987V42.6004H237.407V35.6464Z" fill="#050C0E"/>
<path d="M229.987 35.6464H222.567V42.6004H229.987V35.6464Z" fill="#8D985D"/>
<path d="M222.567 35.6464H215.147V42.6004H222.567V35.6464Z" fill="#8D985D"/>
<path d="M244.827 28.6924H237.407V35.6464H244.827V28.6924Z" fill="#8D985D"/>
<path d="M237.407 28.6924H229.987V35.6464H237.407V28.6924Z" fill="#8D985D"/>
<path d="M229.987 28.6924H222.567V35.6464H229.987V28.6924Z" fill="#39543A"/>
<path d="M222.567 28.6924H215.147V35.6464H222.567V28.6924Z" fill="#8D985D"/>
<path d="M244.827 21.7383H237.407V28.6924H244.827V21.7383Z" fill="#39543A"/>
<path d="M237.407 21.7383H229.987V28.6924H237.407V21.7383Z" fill="#8D985D"/>
<path d="M229.987 21.7383H222.567V28.6924H229.987V21.7383Z" fill="#8D985D"/>
<path d="M222.567 21.7383H215.147V28.6924H222.567V21.7383Z" fill="#050C0E"/>
<path d="M244.827 14.7844H237.407V21.7384H244.827V14.7844Z" fill="#39543A"/>
<path d="M237.407 14.7844H229.987V21.7384H237.407V14.7844Z" fill="#8D985D"/>
<path d="M229.987 14.7844H222.567V21.7384H229.987V14.7844Z" fill="#8D985D"/>
<path d="M222.567 14.7844H215.147V21.7384H222.567V14.7844Z" fill="#39543A"/>
<path d="M244.827 7.83032H237.407V14.7843H244.827V7.83032Z" fill="#050C0E"/>
<path d="M237.407 7.83032H229.987V14.7843H237.407V7.83032Z" fill="#8D985D"/>
<path d="M229.987 7.83032H222.567V14.7843H229.987V7.83032Z" fill="#39543A"/>
<path d="M222.567 7.83032H215.147V14.7843H222.567V7.83032Z" fill="#39543A"/>
<path d="M244.827 0.876343H237.407V7.83034H244.827V0.876343Z" fill="#39543A"/>
<path d="M237.407 0.876343H229.987V7.83034H237.407V0.876343Z" fill="#8D985D"/>
<path d="M229.987 0.876343H222.567V7.83034H229.987V0.876343Z" fill="#39543A"/>
<path d="M222.567 0.876343H215.147V7.83034H222.567V0.876343Z" fill="#050C0E"/>
<path d="M244.827 -6.0777H237.407V0.876319H244.827V-6.0777Z" fill="#8D985D"/>
<path d="M237.407 -6.0777H229.987V0.876319H237.407V-6.0777Z" fill="#39543A"/>
<path d="M229.987 -6.0777H222.567V0.876319H229.987V-6.0777Z" fill="#050C0E"/>
<path d="M222.567 -6.0777H215.147V0.876319H222.567V-6.0777Z" fill="#39543A"/>
<path d="M274.506 35.6464H267.086V42.6004H274.506V35.6464Z" fill="#39543A"/>
<path d="M267.086 35.6464H259.667V42.6004H267.086V35.6464Z" fill="#050C0E"/>
<path d="M259.666 35.6464H252.247V42.6004H259.666V35.6464Z" fill="#8D985D"/>
<path d="M252.246 35.6464H244.827V42.6004H252.246V35.6464Z" fill="#8D985D"/>
<path d="M274.506 28.6924H267.086V35.6464H274.506V28.6924Z" fill="#8D985D"/>
<path d="M267.086 28.6924H259.667V35.6464H267.086V28.6924Z" fill="#8D985D"/>
<path d="M259.666 28.6924H252.247V35.6464H259.666V28.6924Z" fill="#39543A"/>
<path d="M252.246 28.6924H244.827V35.6464H252.246V28.6924Z" fill="#050C0E"/>
<path d="M274.506 21.7383H267.086V28.6924H274.506V21.7383Z" fill="#39543A"/>
<path d="M267.086 21.7383H259.667V28.6924H267.086V21.7383Z" fill="#8D985D"/>
<path d="M259.666 21.7383H252.247V28.6924H259.666V21.7383Z" fill="#39543A"/>
<path d="M252.246 21.7383H244.827V28.6924H252.246V21.7383Z" fill="#39543A"/>
<path d="M274.506 14.7844H267.086V21.7384H274.506V14.7844Z" fill="#8D985D"/>
<path d="M267.086 14.7844H259.667V21.7384H267.086V14.7844Z" fill="#050C0E"/>
<path d="M259.666 14.7844H252.247V21.7384H259.666V14.7844Z" fill="#8D985D"/>
<path d="M252.246 14.7844H244.827V21.7384H252.246V14.7844Z" fill="#39543A"/>
<path d="M7.3939 42.6003H-0.0258789V49.5543H7.3939V42.6003Z" fill="#39543A"/>
<path d="M14.8138 42.6003H7.39404V49.5543H14.8138V42.6003Z" fill="#050C0E"/>
<path d="M22.2333 42.6003H14.8135V49.5543H22.2333V42.6003Z" fill="#39543A"/>
<path d="M29.6532 42.6003H22.2334V49.5543H29.6532V42.6003Z" fill="#8D985D"/>
<path d="M37.0731 42.6003H29.6533V49.5543H37.0731V42.6003Z" fill="#8D985D"/>
<path d="M44.4925 42.6003H37.0728V49.5543H44.4925V42.6003Z" fill="#39543A"/>
<path d="M51.9125 42.6003H44.4927V49.5543H51.9125V42.6003Z" fill="#39543A"/>
<path d="M59.3324 42.6003H51.9126V49.5543H59.3324V42.6003Z" fill="#050C0E"/>
<path d="M66.7523 42.6003H59.3325V49.5543H66.7523V42.6003Z" fill="#050C0E"/>
<path d="M74.1717 42.6003H66.752V49.5543H74.1717V42.6003Z" fill="#39543A"/>
<path d="M81.5917 42.6003H74.1719V49.5543H81.5917V42.6003Z" fill="#39543A"/>
<path d="M89.0116 42.6003H81.5918V49.5543H89.0116V42.6003Z" fill="#050C0E"/>
<path d="M96.431 42.6003H89.0112V49.5543H96.431V42.6003Z" fill="#050C0E"/>
<path d="M103.851 42.6003H96.4312V49.5543H103.851V42.6003Z" fill="#8D985D"/>
<path d="M111.271 42.6003H103.851V49.5543H111.271V42.6003Z" fill="#39543A"/>
<path d="M118.691 42.6003H111.271V49.5543H118.691V42.6003Z" fill="#39543A"/>
<path d="M126.11 42.6003H118.69V49.5543H126.11V42.6003Z" fill="#39543A"/>
<path d="M133.53 42.6003H126.11V49.5543H133.53V42.6003Z" fill="#8D985D"/>
<path d="M140.95 42.6003H133.53V49.5543H140.95V42.6003Z" fill="#8D985D"/>
<path d="M148.369 42.6003H140.95V49.5543H148.369V42.6003Z" fill="#39543A"/>
<path d="M155.789 42.6003H148.37V49.5543H155.789V42.6003Z" fill="#050C0E"/>
<path d="M163.209 42.6003H155.79V49.5543H163.209V42.6003Z" fill="#050C0E"/>
<path d="M170.629 42.6003H163.209V49.5543H170.629V42.6003Z" fill="#39543A"/>
<path d="M178.049 42.6003H170.629V49.5543H178.049V42.6003Z" fill="#39543A"/>
<path d="M185.469 42.6003H178.049V49.5543H185.469V42.6003Z" fill="#39543A"/>
<path d="M192.889 42.6003H185.469V49.5543H192.889V42.6003Z" fill="#39543A"/>
<path d="M200.308 42.6003H192.888V49.5543H200.308V42.6003Z" fill="#050C0E"/>
<path d="M207.728 42.6003H200.308V49.5543H207.728V42.6003Z" fill="#050C0E"/>
<path d="M215.148 42.6003H207.728V49.5543H215.148V42.6003Z" fill="#8D985D"/>
<path d="M7.3939 49.5543H-0.0258789V56.5083H7.3939V49.5543Z" fill="#39543A"/>
<path d="M14.8138 49.5543H7.39404V56.5083H14.8138V49.5543Z" fill="#8D985D"/>
<path d="M22.2333 49.5543H14.8135V56.5083H22.2333V49.5543Z" fill="#39543A"/>
<path d="M29.6532 49.5543H22.2334V56.5083H29.6532V49.5543Z" fill="#39543A"/>
<path d="M37.0731 49.5543H29.6533V56.5083H37.0731V49.5543Z" fill="#39543A"/>
<path d="M44.4925 49.5543H37.0728V56.5083H44.4925V49.5543Z" fill="#39543A"/>
<path d="M51.9125 49.5543H44.4927V56.5083H51.9125V49.5543Z" fill="#39543A"/>
<path d="M59.3324 49.5543H51.9126V56.5083H59.3324V49.5543Z" fill="#050C0E"/>
<path d="M66.7523 49.5543H59.3325V56.5083H66.7523V49.5543Z" fill="#8D985D"/>
<path d="M74.1717 49.5543H66.752V56.5083H74.1717V49.5543Z" fill="#39543A"/>
<path d="M81.5917 49.5543H74.1719V56.5083H81.5917V49.5543Z" fill="#39543A"/>
<path d="M89.0116 49.5543H81.5918V56.5083H89.0116V49.5543Z" fill="#050C0E"/>
<path d="M96.431 49.5543H89.0112V56.5083H96.431V49.5543Z" fill="#050C0E"/>
<path d="M103.851 49.5543H96.4312V56.5083H103.851V49.5543Z" fill="#050C0E"/>
<path d="M111.271 49.5543H103.851V56.5083H111.271V49.5543Z" fill="#050C0E"/>
<path d="M118.691 49.5543H111.271V56.5083H118.691V49.5543Z" fill="#39543A"/>
<path d="M126.11 49.5543H118.69V56.5083H126.11V49.5543Z" fill="#39543A"/>
<path d="M133.53 49.5543H126.11V56.5083H133.53V49.5543Z" fill="#8D985D"/>
<path d="M140.95 49.5543H133.53V56.5083H140.95V49.5543Z" fill="#39543A"/>
<path d="M148.369 49.5543H140.95V56.5083H148.369V49.5543Z" fill="#39543A"/>
<path d="M155.789 49.5543H148.37V56.5083H155.789V49.5543Z" fill="#8D985D"/>
<path d="M163.209 49.5543H155.79V56.5083H163.209V49.5543Z" fill="#39543A"/>
<path d="M170.629 49.5543H163.209V56.5083H170.629V49.5543Z" fill="#8D985D"/>
<path d="M178.049 49.5543H170.629V56.5083H178.049V49.5543Z" fill="#39543A"/>
<path d="M185.469 49.5543H178.049V56.5083H185.469V49.5543Z" fill="#39543A"/>
<path d="M192.889 49.5543H185.469V56.5083H192.889V49.5543Z" fill="#8D985D"/>
<path d="M200.308 49.5543H192.888V56.5083H200.308V49.5543Z" fill="#8D985D"/>
<path d="M207.728 49.5543H200.308V56.5083H207.728V49.5543Z" fill="#39543A"/>
<path d="M215.148 49.5543H207.728V56.5083H215.148V49.5543Z" fill="#8D985D"/>
<path d="M7.3939 56.5083H-0.0258789V63.4623H7.3939V56.5083Z" fill="#8D985D"/>
<path d="M14.8138 56.5083H7.39404V63.4623H14.8138V56.5083Z" fill="#050C0E"/>
<path d="M22.2333 56.5083H14.8135V63.4623H22.2333V56.5083Z" fill="#8D985D"/>
<path d="M29.6532 56.5083H22.2334V63.4623H29.6532V56.5083Z" fill="#39543A"/>
<path d="M37.0731 56.5083H29.6533V63.4623H37.0731V56.5083Z" fill="#8D985D"/>
<path d="M44.4925 56.5083H37.0728V63.4623H44.4925V56.5083Z" fill="#8D985D"/>
<path d="M51.9125 56.5083H44.4927V63.4623H51.9125V56.5083Z" fill="#39543A"/>
<path d="M59.3324 56.5083H51.9126V63.4623H59.3324V56.5083Z" fill="#8D985D"/>
<path d="M66.7523 56.5083H59.3325V63.4623H66.7523V56.5083Z" fill="#8D985D"/>
<path d="M74.1717 56.5083H66.752V63.4623H74.1717V56.5083Z" fill="#39543A"/>
<path d="M81.5917 56.5083H74.1719V63.4623H81.5917V56.5083Z" fill="#39543A"/>
<path d="M89.0116 56.5083H81.5918V63.4623H89.0116V56.5083Z" fill="#050C0E"/>
<path d="M96.431 56.5083H89.0112V63.4623H96.431V56.5083Z" fill="#050C0E"/>
<path d="M103.851 56.5083H96.4312V63.4623H103.851V56.5083Z" fill="#050C0E"/>
<path d="M111.271 56.5083H103.851V63.4623H111.271V56.5083Z" fill="#8D985D"/>
<path d="M118.691 56.5083H111.271V63.4623H118.691V56.5083Z" fill="#8D985D"/>
<path d="M126.11 56.5083H118.69V63.4623H126.11V56.5083Z" fill="#8D985D"/>
<path d="M133.53 56.5083H126.11V63.4623H133.53V56.5083Z" fill="#39543A"/>
<path d="M140.95 56.5083H133.53V63.4623H140.95V56.5083Z" fill="#39543A"/>
<path d="M148.369 56.5083H140.95V63.4623H148.369V56.5083Z" fill="#8D985D"/>
<path d="M155.789 56.5083H148.37V63.4623H155.789V56.5083Z" fill="#8D985D"/>
<path d="M163.209 56.5083H155.79V63.4623H163.209V56.5083Z" fill="#39543A"/>
<path d="M170.629 56.5083H163.209V63.4623H170.629V56.5083Z" fill="#39543A"/>
<path d="M178.049 56.5083H170.629V63.4623H178.049V56.5083Z" fill="#39543A"/>
<path d="M185.469 56.5083H178.049V63.4623H185.469V56.5083Z" fill="#39543A"/>
<path d="M192.889 56.5083H185.469V63.4623H192.889V56.5083Z" fill="#39543A"/>
<path d="M200.308 56.5083H192.888V63.4623H200.308V56.5083Z" fill="#8D985D"/>
<path d="M207.728 56.5083H200.308V63.4623H207.728V56.5083Z" fill="#050C0E"/>
<path d="M215.148 56.5083H207.728V63.4623H215.148V56.5083Z" fill="#8D985D"/>
<path d="M7.3939 63.4623H-0.0258789V70.4163H7.3939V63.4623Z" fill="#8D985D"/>
<path d="M14.8138 63.4623H7.39404V70.4163H14.8138V63.4623Z" fill="#8D985D"/>
<path d="M22.2333 63.4623H14.8135V70.4163H22.2333V63.4623Z" fill="#8D985D"/>
<path d="M29.6532 63.4623H22.2334V70.4163H29.6532V63.4623Z" fill="#050C0E"/>
<path d="M37.0731 63.4623H29.6533V70.4163H37.0731V63.4623Z" fill="#050C0E"/>
<path d="M44.4925 63.4623H37.0728V70.4163H44.4925V63.4623Z" fill="#39543A"/>
<path d="M51.9125 63.4623H44.4927V70.4163H51.9125V63.4623Z" fill="#8D985D"/>
<path d="M59.3324 63.4623H51.9126V70.4163H59.3324V63.4623Z" fill="#8D985D"/>
<path d="M66.7523 63.4623H59.3325V70.4163H66.7523V63.4623Z" fill="#39543A"/>
<path d="M74.1717 63.4623H66.752V70.4163H74.1717V63.4623Z" fill="#8D985D"/>
<path d="M81.5917 63.4623H74.1719V70.4163H81.5917V63.4623Z" fill="#8D985D"/>
<path d="M89.0116 63.4623H81.5918V70.4163H89.0116V63.4623Z" fill="#050C0E"/>
<path d="M96.431 63.4623H89.0112V70.4163H96.431V63.4623Z" fill="#39543A"/>
<path d="M103.851 63.4623H96.4312V70.4163H103.851V63.4623Z" fill="#8D985D"/>
<path d="M111.271 63.4623H103.851V70.4163H111.271V63.4623Z" fill="#8D985D"/>
<path d="M118.691 63.4623H111.271V70.4163H118.691V63.4623Z" fill="#8D985D"/>
<path d="M126.11 63.4623H118.69V70.4163H126.11V63.4623Z" fill="#39543A"/>
<path d="M133.53 63.4623H126.11V70.4163H133.53V63.4623Z" fill="#8D985D"/>
<path d="M140.95 63.4623H133.53V70.4163H140.95V63.4623Z" fill="#8D985D"/>
<path d="M148.369 63.4623H140.95V70.4163H148.369V63.4623Z" fill="#050C0E"/>
<path d="M155.789 63.4623H148.37V70.4163H155.789V63.4623Z" fill="#050C0E"/>
<path d="M163.209 63.4623H155.79V70.4163H163.209V63.4623Z" fill="#8D985D"/>
<path d="M170.629 63.4623H163.209V70.4163H170.629V63.4623Z" fill="#39543A"/>
<path d="M178.049 63.4623H170.629V70.4163H178.049V63.4623Z" fill="#39543A"/>
<path d="M185.469 63.4623H178.049V70.4163H185.469V63.4623Z" fill="#8D985D"/>
<path d="M192.889 63.4623H185.469V70.4163H192.889V63.4623Z" fill="#050C0E"/>
<path d="M200.308 63.4623H192.888V70.4163H200.308V63.4623Z" fill="#050C0E"/>
<path d="M207.728 63.4623H200.308V70.4163H207.728V63.4623Z" fill="#050C0E"/>
<path d="M215.148 63.4623H207.728V70.4163H215.148V63.4623Z" fill="#39543A"/>
<path d="M244.827 63.4623H237.407V70.4163H244.827V63.4623Z" fill="#39543A"/>
<path d="M237.407 63.4623H229.987V70.4163H237.407V63.4623Z" fill="#050C0E"/>
<path d="M229.987 63.4623H222.567V70.4163H229.987V63.4623Z" fill="#050C0E"/>
<path d="M222.567 63.4623H215.147V70.4163H222.567V63.4623Z" fill="#8D985D"/>
<path d="M244.827 56.5083H237.407V63.4623H244.827V56.5083Z" fill="#8D985D"/>
<path d="M237.407 56.5083H229.987V63.4623H237.407V56.5083Z" fill="#8D985D"/>
<path d="M229.987 56.5083H222.567V63.4623H229.987V56.5083Z" fill="#39543A"/>
<path d="M222.567 56.5083H215.147V63.4623H222.567V56.5083Z" fill="#8D985D"/>
<path d="M244.827 49.5543H237.407V56.5083H244.827V49.5543Z" fill="#39543A"/>
<path d="M237.407 49.5543H229.987V56.5083H237.407V49.5543Z" fill="#8D985D"/>
<path d="M229.987 49.5543H222.567V56.5083H229.987V49.5543Z" fill="#8D985D"/>
<path d="M222.567 49.5543H215.147V56.5083H222.567V49.5543Z" fill="#8D985D"/>
<path d="M244.827 42.6003H237.407V49.5543H244.827V42.6003Z" fill="#050C0E"/>
<path d="M237.407 42.6003H229.987V49.5543H237.407V42.6003Z" fill="#050C0E"/>
<path d="M229.987 42.6003H222.567V49.5543H229.987V42.6003Z" fill="#8D985D"/>
<path d="M222.567 42.6003H215.147V49.5543H222.567V42.6003Z" fill="#39543A"/>
<path d="M274.506 63.4623H267.086V70.4163H274.506V63.4623Z" fill="#39543A"/>
<path d="M267.086 63.4623H259.667V70.4163H267.086V63.4623Z" fill="#050C0E"/>
<path d="M259.666 63.4623H252.247V70.4163H259.666V63.4623Z" fill="#050C0E"/>
<path d="M252.246 63.4623H244.827V70.4163H252.246V63.4623Z" fill="#050C0E"/>
<path d="M274.506 56.5083H267.086V63.4623H274.506V56.5083Z" fill="#8D985D"/>
<path d="M267.086 56.5083H259.667V63.4623H267.086V56.5083Z" fill="#8D985D"/>
<path d="M259.666 56.5083H252.247V63.4623H259.666V56.5083Z" fill="#050C0E"/>
<path d="M252.246 56.5083H244.827V63.4623H252.246V56.5083Z" fill="#050C0E"/>
<path d="M274.506 49.5543H267.086V56.5083H274.506V49.5543Z" fill="#39543A"/>
<path d="M267.086 49.5543H259.667V56.5083H267.086V49.5543Z" fill="#050C0E"/>
<path d="M259.666 49.5543H252.247V56.5083H259.666V49.5543Z" fill="#050C0E"/>
<path d="M252.246 49.5543H244.827V56.5083H252.246V49.5543Z" fill="#050C0E"/>
<path d="M274.506 42.6003H267.086V49.5543H274.506V42.6003Z" fill="#050C0E"/>
<path d="M267.086 42.6003H259.667V49.5543H267.086V42.6003Z" fill="#050C0E"/>
<path d="M259.666 42.6003H252.247V49.5543H259.666V42.6003Z" fill="#050C0E"/>
<path d="M252.246 42.6003H244.827V49.5543H252.246V42.6003Z" fill="#39543A"/>
<path d="M274.506 7.83032H267.086V14.7843H274.506V7.83032Z" fill="#050C0E"/>
<path d="M267.086 7.83032H259.667V14.7843H267.086V7.83032Z" fill="#8D985D"/>
<path d="M259.666 7.83032H252.247V14.7843H259.666V7.83032Z" fill="#39543A"/>
<path d="M252.246 7.83032H244.827V14.7843H252.246V7.83032Z" fill="#39543A"/>
<path d="M274.506 0.876343H267.086V7.83034H274.506V0.876343Z" fill="#39543A"/>
<path d="M267.086 0.876343H259.667V7.83034H267.086V0.876343Z" fill="#8D985D"/>
<path d="M259.666 0.876343H252.247V7.83034H259.666V0.876343Z" fill="#39543A"/>
<path d="M252.246 0.876343H244.827V7.83034H252.246V0.876343Z" fill="#050C0E"/>
<path d="M274.506 -6.0777H267.086V0.876319H274.506V-6.0777Z" fill="#8D985D"/>
<path d="M267.086 -6.0777H259.667V0.876319H267.086V-6.0777Z" fill="#39543A"/>
<path d="M259.666 -6.0777H252.247V0.876319H259.666V-6.0777Z" fill="#39543A"/>
<path d="M252.246 -6.0777H244.827V0.876319H252.246V-6.0777Z" fill="#39543A"/>
<path d="M142.523 11.9527C143.054 11.8409 143.175 10.9462 142.716 10.5828C141.462 9.6043 139.436 8.68172 137.747 10.8065C135.094 14.1613 137.024 22.129 135.118 24.6731C135.118 24.6731 136.083 18.3828 135.649 13.714C135.383 10.8903 136.445 8.84946 137.916 8.06667C138.471 7.75914 138.326 6.69678 137.699 6.64086C136.662 6.58495 135.6 7.0043 134.853 8.54194C134.443 9.38065 134.226 10.3312 134.226 11.3376C134.201 12.7075 134.177 15.1957 134.25 16.6774C134.346 18.8022 133.743 22.9398 133.743 22.9398C133.743 22.9398 134.033 18.914 133.743 14.7484C133.502 11.4495 133.116 8.01075 135.07 6.52903C135.576 6.13763 135.359 5.15914 134.78 5.15914C133.598 5.15914 132.296 5.74624 131.644 8.03871C131.283 9.32473 131.283 10.6946 131.572 12.0086C132.055 14.1613 132.802 18.5505 131.259 20.4516C131.259 20.4516 131.934 15.3355 130.656 11.7011C129.787 9.2129 130.463 6.8086 131.548 5.1871C131.934 4.6 131.476 3.73333 130.921 4.0129C129.546 4.65591 128.147 6.38925 128.581 10.7785C128.581 10.7785 130.366 17.8796 129.16 19.4172C129.16 19.4172 129.498 13.7699 127.52 10.7785C126.145 8.68172 127.713 5.66237 128.774 4.04086C129.16 3.48172 128.919 2.5871 128.364 2.41935C127.664 2.1957 126.772 2 126 2C125.228 2 124.336 2.22366 123.636 2.41935C123.081 2.5871 122.84 3.48172 123.226 4.04086C124.311 5.69032 125.879 8.68172 124.48 10.7785C122.502 13.7699 122.84 19.4172 122.84 19.4172C121.634 17.8516 123.419 10.7785 123.419 10.7785C123.853 6.38925 122.454 4.65591 121.079 4.0129C120.524 3.76129 120.066 4.6 120.428 5.1871C121.489 6.8086 122.189 9.26882 121.344 11.7011C120.066 15.3355 120.741 20.4516 120.741 20.4516C119.198 18.5505 119.945 14.1613 120.428 12.0086C120.717 10.6946 120.717 9.32473 120.356 8.03871C119.704 5.71828 118.402 5.15914 117.22 5.15914C116.641 5.15914 116.424 6.13763 116.93 6.52903C118.884 8.01075 118.498 11.4495 118.257 14.7484C117.967 18.886 118.257 22.9398 118.257 22.9398C118.257 22.9398 117.678 18.8022 117.75 16.6774C117.823 15.1957 117.799 12.7075 117.774 11.3376C117.75 10.3591 117.557 9.38065 117.147 8.54194C116.4 7.0043 115.338 6.58495 114.301 6.64086C113.698 6.66882 113.529 7.75914 114.084 8.06667C115.555 8.87742 116.617 10.9183 116.351 13.714C115.917 18.3548 116.882 24.6731 116.882 24.6731C115 22.1011 116.906 14.1333 114.253 10.8065C112.588 8.68172 110.562 9.6043 109.284 10.5828C108.825 10.9183 108.946 11.8129 109.477 11.9527C111.623 12.4559 115.435 14.1613 114.783 19.7247C113.891 27.4129 117.244 28 117.244 28C118.329 25.7355 119.608 24.1419 120.838 23.0516C123.926 20.2839 128.026 20.2839 131.114 23.0516C132.344 24.1699 133.622 25.7355 134.708 28C134.708 28 138.037 27.3849 137.168 19.7247C136.589 14.1613 140.377 12.4839 142.523 11.9527Z" fill="#B51E59"/>
<path d="M134.348 30.0775L132.117 27.5775L129.886 30.0775L130.862 31.1339C131.559 31.9085 132.71 31.9085 133.442 31.1339L134.348 30.0775Z" fill="white"/>
<path d="M132.814 38.5986L134.348 36.8733L132.117 34.3733L129.886 36.8733L131.42 38.5986C131.803 39.0212 132.431 39.0212 132.814 38.5986Z" fill="white"/>
<path d="M123.751 23.2817L124.658 24.2677C125.39 25.1127 126.61 25.1127 127.377 24.2677L128.283 23.2817L126.052 20.7817L123.751 23.2817Z" fill="white"/>
<path d="M126.715 38.5986L128.248 36.8733L126.017 34.3733L123.787 36.8733L125.32 38.5986C125.704 39.0212 126.331 39.0212 126.715 38.5986Z" fill="white"/>
<path d="M130.304 41.4156L131.315 40.2888L129.084 37.7888L126.854 40.2888L127.864 41.4156C128.527 42.155 129.607 42.155 130.304 41.4156Z" fill="white"/>
<path d="M120.719 26.662L121.625 27.6831C122.357 28.493 123.577 28.493 124.309 27.6831L125.215 26.662L122.984 24.162L120.719 26.662Z" fill="white"/>
<path d="M117.154 30.1631L116.213 29.1068C116.143 29.3181 116.038 29.5646 115.934 29.7406C115.62 30.3392 115.237 31.3603 114.923 32.6279L117.154 30.1631Z" fill="white"/>
<path d="M115.63 41.4156C116.327 42.1902 117.407 42.1902 118.105 41.4156L119.115 40.2888L116.885 37.7888L114.654 40.2888L115.63 41.4156Z" fill="white"/>
<path d="M116.005 34.8347C116.69 35.6266 117.771 35.6266 118.457 34.8347L119.538 33.5903L117.231 30.913L114.923 33.5903L116.005 34.8347Z" fill="white"/>
<path d="M122.148 30.0775L119.917 27.5775L117.687 30.0775L118.663 31.1339C119.36 31.9085 120.51 31.9085 121.242 31.1339L122.148 30.0775Z" fill="white"/>
<path d="M137.462 32.6279C137.148 31.3603 136.765 30.3392 136.451 29.7406C136.346 29.5293 136.242 29.3181 136.172 29.1068L135.231 30.1631L137.462 32.6279Z" fill="white"/>
<path d="M115.403 38.7509L116.937 37.0255L114.706 34.5255L114.218 35.0537C114.044 36.2157 113.974 37.4833 114.009 38.7509C114.392 39.1734 115.02 39.1734 115.403 38.7509Z" fill="white"/>
<path d="M137.863 35.0506L137.556 34.5256L136.154 37.0109L137.118 38.7261C137.359 39.1462 137.753 39.1462 137.994 38.7261C138.016 37.466 137.973 36.2058 137.863 35.0506Z" fill="white"/>
<path d="M121.068 44.8662L122.148 43.6691L119.917 41.1691L117.687 43.6691L118.767 44.8662C119.36 45.6057 120.44 45.6057 121.068 44.8662Z" fill="white"/>
<path d="M123.751 50.4648L123.821 50.5705C124.518 50.6761 125.215 50.7465 125.982 50.7817C126.749 50.7465 127.481 50.6761 128.143 50.5705L128.213 50.4648L125.982 47.9648L123.751 50.4648Z" fill="white"/>
<path d="M137.415 33.4578L135.184 30.9578L132.954 33.4578L133.999 34.6197C134.662 35.3592 135.707 35.3592 136.37 34.6197L137.415 33.4578Z" fill="white"/>
<path d="M124.135 34.655L125.18 33.493L122.95 30.993L120.719 33.493L121.764 34.655C122.427 35.3944 123.472 35.3944 124.135 34.655Z" fill="white"/>
<path d="M119.22 38.5986C119.604 39.0212 120.231 39.0212 120.614 38.5986L122.148 36.8733L119.917 34.3733L117.687 36.8733L119.22 38.5986Z" fill="white"/>
<path d="M127.307 31.1339L128.283 30.0775L126.052 27.5775L123.821 30.0775L124.797 31.1339C125.425 31.9437 126.575 31.9437 127.307 31.1339Z" fill="white"/>
<path d="M124.204 41.4156L125.215 40.2888L122.984 37.7888L120.753 40.2888L121.764 41.4156C122.392 42.155 123.507 42.155 124.204 41.4156Z" fill="white"/>
<path d="M130.269 34.655L131.315 33.493L129.084 30.993L126.854 33.493L127.899 34.655C128.527 35.3944 129.607 35.3944 130.269 34.655Z" fill="white"/>
<path d="M126.819 26.662L127.725 27.6831C128.457 28.493 129.677 28.493 130.409 27.6831L131.315 26.662L129.085 24.162L126.819 26.662Z" fill="white"/>
<path d="M114.249 40.8474L114 41.2949C114.2 42.7187 114.499 44.1019 114.948 45.363L115.846 43.7358L114.249 40.8474Z" fill="white"/>
<path d="M116.85 44.5846L115.491 46.0987C116.118 46.9437 116.92 47.7184 117.931 48.3874L119.116 47.0494L116.85 44.5846Z" fill="white"/>
<path d="M119.539 24.074L120.092 24.9386C120.54 25.6796 121.285 25.6796 121.754 24.9386L122.308 24.074L121.846 21.8818L119.539 24.074Z" fill="white"/>
<path d="M117.692 29.1068C117.692 29.1068 117.592 29.0126 118.461 28.3547L119.538 27.5252L118.461 25.4943L116.769 28.3547C117.692 29.1068 117.692 29.1068 117.692 29.1068Z" fill="white"/>
<g filter="url(#filter0_d_585_1442)">
<path d="M135.343 28.2205C135.343 28.2205 135.222 28.2893 134.814 27.2909L134.293 26.0506L132.002 26.5074L134.35 28.8835C135.343 28.2205 135.343 28.2205 135.343 28.2205Z" fill="white"/>
</g>
<path d="M118.941 49.0564C119.778 49.5141 120.754 49.9015 121.869 50.1832L119.917 48.0001L118.941 49.0564Z" fill="white"/>
<path d="M130.165 50.1479C131.246 49.8663 132.222 49.4789 133.093 49.0212L132.152 47.9648L130.165 50.1479Z" fill="white"/>
<path d="M132.918 47.0845L134.104 48.4226C135.08 47.7536 135.881 46.9789 136.544 46.1338L135.184 44.6198L132.918 47.0845Z" fill="white"/>
<path d="M136.154 43.7358L137.052 45.363C137.501 44.1019 137.825 42.7187 138 41.2949L137.75 40.8474L136.154 43.7358Z" fill="white"/>
<path d="M133.302 44.8662L134.383 43.6691L132.152 41.1691L129.921 43.6691L131.002 44.8662C131.595 45.6057 132.64 45.6057 133.302 44.8662Z" fill="white"/>
<path d="M136.404 41.4156L137.415 40.2888L135.184 37.7888L132.954 40.2888L133.964 41.4156C134.627 42.155 135.707 42.155 136.404 41.4156Z" fill="white"/>
<path d="M127.202 44.8662L128.283 43.6691L126.052 41.1691L123.821 43.6691L124.902 44.8662C125.494 45.6057 126.54 45.6057 127.202 44.8662Z" fill="white"/>
<path d="M131.315 47.0846L129.084 44.5846L126.854 47.0846L127.655 48.0001C128.457 48.8804 129.712 48.8804 130.513 48.0001L131.315 47.0846Z" fill="white"/>
<path d="M129.692 23.526L130.246 24.1744C130.693 24.7301 131.439 24.7301 131.907 24.1744L132.461 23.526L131.098 21.8818L129.692 23.526Z" fill="white"/>
<path d="M125.215 47.0846L122.984 44.5846L120.753 47.0846L121.555 48.0001C122.357 48.8804 123.612 48.8804 124.413 48.0001L125.215 47.0846Z" fill="white"/>
<path d="M51.6328 49.9141L36.0059 49.8789C36.0059 49.8555 36.0176 49.7031 36.041 49.4219C36.0645 49.1406 36.0879 48.8242 36.1113 48.4727C36.1465 48.1094 36.1758 47.7871 36.1992 47.5059C36.2227 47.2129 36.2344 47.0605 36.2344 47.0488C36.3281 45.7832 36.4336 44.459 36.5508 43.0762C36.668 41.6934 36.8086 40.1289 36.9727 38.3828C37.1367 36.625 37.3301 34.5859 37.5527 32.2656C37.7871 29.9336 38.0625 27.1914 38.3789 24.0391C40.0898 23.9805 41.9824 23.9277 44.0566 23.8809C46.1426 23.8223 48.3164 23.7695 50.5781 23.7227C52.8516 23.6758 55.1191 23.6348 57.3809 23.5996C59.6426 23.5645 61.7988 23.541 63.8496 23.5293C64.3535 23.5293 64.8574 23.5352 65.3613 23.5469C65.8652 23.5586 66.334 23.5703 66.7676 23.582C66.709 24.0859 66.6152 24.7773 66.4863 25.6562C66.3574 26.5234 66.2109 27.4082 66.0469 28.3105C65.8828 29.2012 65.707 29.9395 65.5195 30.5254H50.7891L50.543 33.0918C53.918 32.9512 56.748 32.9805 59.0332 33.1797C61.3301 33.3672 63.1816 33.6777 64.5879 34.1113C66.0059 34.5449 67.084 35.0605 67.8223 35.6582C68.5605 36.2559 69.0586 36.8887 69.3164 37.5566C69.5859 38.2246 69.7207 38.8867 69.7207 39.543C69.7207 40.7266 69.5977 41.8398 69.3516 42.8828C69.1055 43.9258 68.6309 44.8809 67.9277 45.748C67.2246 46.6035 66.2051 47.3418 64.8691 47.9629C63.5332 48.584 61.7871 49.0645 59.6309 49.4043C57.4746 49.7441 54.8086 49.9141 51.6328 49.9141ZM49.3652 44.4648C50.959 44.4648 52.4121 44.3535 53.7246 44.1309C55.0488 43.9082 56.1035 43.5508 56.8887 43.0586C57.6738 42.5664 58.0664 41.916 58.0664 41.1074C58.0664 41.0254 58.0547 40.9141 58.0312 40.7734C57.9258 40.1172 57.6094 39.625 57.082 39.2969C56.5547 38.957 55.7168 38.752 54.5684 38.6816C53.4316 38.5996 51.8906 38.6172 49.9453 38.7344C49.8281 40.0117 49.7168 41.0957 49.6113 41.9863C49.5176 42.877 49.4355 43.7031 49.3652 44.4648ZM78.2109 49L84.2754 39.4727L73.0254 24.127L73.0957 23.3184L82.5527 23.2656L85.6992 23.2129L85.8398 23.3711L90.8145 30.9473L94.8398 24.2148L95.1914 23.582L107.039 23.1953L107.479 23.8984L97.8281 38.9453L91.5176 48.8945L88.6699 48.9473L78.2109 49ZM156.803 50.5117L143.074 48.666C143.414 48.2441 143.848 47.6758 144.375 46.9609C144.902 46.2461 145.477 45.4668 146.098 44.623C146.719 43.7793 147.34 42.9297 147.961 42.0742C148.594 41.2188 149.186 40.4277 149.736 39.7012C150.299 38.9746 150.779 38.3887 151.178 37.9434C150.111 37.5801 149.098 37.082 148.137 36.4492C147.188 35.8164 146.408 35.043 145.799 34.1289C145.201 33.2031 144.902 32.1426 144.902 30.9473C144.902 29.2363 145.318 27.8887 146.15 26.9043C146.982 25.9082 148.119 25.1699 149.561 24.6895C151.002 24.1973 152.643 23.8809 154.482 23.7402C156.334 23.5996 158.268 23.5293 160.283 23.5293C163.482 23.7168 166.148 23.875 168.281 24.0039C170.414 24.1211 172.131 24.2148 173.432 24.2852C174.732 24.3555 175.717 24.4082 176.385 24.4434C177.053 24.4668 177.51 24.4844 177.756 24.4961C178.002 24.4961 178.148 24.4961 178.195 24.4961L178.371 34.7441L178.477 37.6445C178.559 39.7539 178.635 41.8867 178.705 44.043C178.787 46.1992 178.828 48.0742 178.828 49.668L174.715 49.5273C174.105 49.5273 173.309 49.4922 172.324 49.4219C171.352 49.3516 170.361 49.2695 169.354 49.1758C168.346 49.0938 167.473 49.0352 166.734 49C166.652 48.9883 166.611 48.9355 166.611 48.8418L166.26 40.1055L161.953 39.8066C161.766 40.2402 161.496 40.8379 161.145 41.5996C160.805 42.3496 160.418 43.1758 159.984 44.0781C159.562 44.9688 159.135 45.8477 158.701 46.7148C158.279 47.582 157.898 48.3555 157.559 49.0352C157.219 49.7148 156.967 50.207 156.803 50.5117ZM165.996 35.2539L165.697 30.2969C165.029 30.2734 164.402 30.25 163.816 30.2266C163.242 30.2031 162.521 30.1914 161.654 30.1914C161.15 30.1914 160.564 30.2383 159.896 30.332C159.229 30.4141 158.643 30.6016 158.139 30.8945C157.646 31.1758 157.4 31.6211 157.4 32.2305C157.4 32.8984 157.623 33.4082 158.068 33.7598C158.525 34.1113 159.146 34.375 159.932 34.5508C160.729 34.7148 161.643 34.8438 162.674 34.9375C163.717 35.0195 164.824 35.125 165.996 35.2539ZM212.051 50.4238L209.01 47.9277C208.283 47.3184 207.469 46.6211 206.566 45.8359C205.676 45.0391 204.779 44.2422 203.877 43.4453C202.986 42.6367 202.184 41.8984 201.469 41.2305C200.754 40.5508 200.221 40.0234 199.869 39.6484C199.857 40.3516 199.834 41.1836 199.799 42.1445C199.775 43.0938 199.746 44.0254 199.711 44.9395C199.676 45.8535 199.646 46.6328 199.623 47.2773C199.6 47.9102 199.588 48.2734 199.588 48.3672V48.4375C199.365 48.4609 198.861 48.5137 198.076 48.5957C197.291 48.666 196.359 48.7539 195.281 48.8594C194.215 48.9648 193.119 49.0703 191.994 49.1758C190.869 49.2812 189.838 49.3633 188.9 49.4219C187.975 49.4922 187.277 49.5273 186.809 49.5273C186.727 49.0352 186.662 48.5254 186.615 47.998C186.568 47.459 186.545 46.8965 186.545 46.3105L186.879 35.1309C186.973 33.2441 187.055 31.5391 187.125 30.0156C187.207 28.4805 187.248 27.1211 187.248 25.9375C187.248 25.5156 187.225 25.1875 187.178 24.9531C187.4 24.8477 187.834 24.7363 188.479 24.6191C189.123 24.4902 189.891 24.3613 190.781 24.2324C191.672 24.1035 192.598 23.9863 193.559 23.8809C194.52 23.7637 195.428 23.6758 196.283 23.6172C197.15 23.5469 197.871 23.5117 198.445 23.5117C198.738 23.5117 199.025 23.5176 199.307 23.5293C199.588 23.5293 199.869 23.5293 200.15 23.5293C200.232 24.0215 200.285 24.5371 200.309 25.0762C200.344 25.6152 200.361 26.1953 200.361 26.8164C200.279 28.0234 200.215 29.1543 200.168 30.209C200.133 31.2637 200.098 32.3066 200.062 33.3379L207.357 24.127L208.5 22.791L214.688 24.9531L221.227 27.0449V27.0098C221.238 27.0215 221.25 27.0332 221.262 27.0449C221.285 27.0566 221.297 27.0625 221.297 27.0625L221.227 27.0449V27.168L218.994 29.5234L212.139 36.4141L223.67 45.4492L213.914 49.4746L212.051 50.4238Z" fill="white"/>
<path d="M130.382 53.0897C130.382 53.0897 134.123 55.9378 142.496 56.9853C142.496 56.9853 146.416 58.8693 143.224 60.1847C143.224 60.1847 151.727 59.4306 149.699 58.1273C149.699 58.1273 157.624 59.979 155.737 61.211C155.737 61.211 161.269 60.1426 160.097 59.0783C160.097 59.0783 166.718 61.6788 160.286 63.1739C160.286 63.1739 165.866 62.8281 166.763 61.6902C166.763 61.6902 172.395 64.6257 164.074 66.2055C164.074 66.2055 172.128 65.854 172.799 64.0511C172.799 64.0511 176.002 67.3135 166.375 68.8963C166.375 68.8963 184.687 67.3277 178.555 62.2478C178.555 62.2478 185.307 62.8746 184.68 64.1037C184.68 64.1037 185.977 60.8996 175.039 59.6974C175.039 59.6974 183.499 59.6089 184.716 60.2486C184.716 60.2486 178.23 57.7625 166.664 57.6862C166.664 57.6862 175.034 57.4831 178.23 57.7625C178.23 57.7625 172.195 55.7687 160.135 55.9575C160.135 55.9575 166.839 55.7812 172.195 55.7687C172.195 55.7687 161.84 53.9112 151.401 54.7502C151.401 54.7502 155.404 53.5935 161.84 53.9112C161.84 53.9112 154.008 53.2755 142.533 53.3826C131.013 53.5012 130.382 53.0897 130.382 53.0897Z" fill="white"/>
<path d="M119.321 52.9999C119.321 52.9999 115.592 55.8655 107.225 56.952C107.225 56.952 103.314 58.8542 106.512 60.1548C106.512 60.1548 98.0049 59.4403 100.027 58.1276C100.027 58.1276 92.111 60.0162 94.0039 61.2395C94.0039 61.2395 88.4662 60.1968 89.6338 59.1271C89.6338 59.1271 83.0246 61.7584 89.4633 63.2235C89.4633 63.2235 83.8823 62.9038 82.9796 61.77C82.9796 61.77 77.3613 64.7318 85.6903 66.2727C85.6903 66.2727 77.6341 65.9588 76.9549 64.159C76.9549 64.159 73.7674 67.4364 83.4014 68.9743C83.4014 68.9743 65.0821 67.491 71.1905 62.3826C71.1905 62.3826 64.4417 63.0409 65.0746 64.267C65.0746 64.267 63.7621 61.069 74.6947 59.8159C74.6947 59.8159 66.2342 59.7668 65.0206 60.4121C65.0206 60.4121 71.4951 57.8958 83.0603 57.7656C83.0603 57.7656 74.6895 57.6016 71.4951 57.8958C71.4951 57.8958 77.5206 55.874 89.5815 56.0065C89.5815 56.0065 82.8758 55.8615 77.5206 55.8739C77.5206 55.8739 87.8667 53.9682 98.309 54.7585C98.309 54.7585 94.3011 53.6205 87.8666 53.9682C87.8666 53.9682 95.6955 53.296 107.171 53.3495C118.692 53.4144 119.321 52.9999 119.321 52.9999Z" fill="white"/>
</g>
<defs>
<filter id="filter0_d_585_1442" x="128.002" y="26.0506" width="11.3408" height="10.8329" filterUnits="userSpaceOnUse" color-interpolation-filters="sRGB">
<feFlood flood-opacity="0" result="BackgroundImageFix"/>
<feColorMatrix in="SourceAlpha" type="matrix" values="0 0 0 0 0 0 0 0 0 0 0 0 0 0 0 0 0 0 127 0" result="hardAlpha"/>
<feOffset dy="4"/>
<feGaussianBlur stdDeviation="2"/>
<feComposite in2="hardAlpha" operator="out"/>
<feColorMatrix type="matrix" values="0 0 0 0 0 0 0 0 0 0 0 0 0 0 0 0 0 0 0.25 0"/>
<feBlend mode="normal" in2="BackgroundImageFix" result="effect1_dropShadow_585_1442"/>
<feBlend mode="normal" in="SourceGraphic" in2="effect1_dropShadow_585_1442" result="shape"/>
</filter>
<clipPath id="clip0_585_1442">
<rect width="268" height="70" fill="white"/>
</clipPath>
</defs>
</svg>
