<svg width="30" height="30" viewBox="0 0 30 30" fill="none" xmlns="http://www.w3.org/2000/svg">
<path d="M9.85645 24.0283H19.2168C21.0977 24.0283 22.0732 23.0439 22.0732 21.1455V17.1904H20.3506V21.04C20.3506 21.8574 19.9199 22.3057 19.0674 22.3057H9.99707C9.14453 22.3057 8.72266 21.8574 8.72266 21.04V7.98828C8.72266 7.1709 9.14453 6.72266 9.99707 6.72266H19.0674C19.9199 6.72266 20.3506 7.1709 20.3506 7.98828V11.8467H22.0732V7.88281C22.0732 5.99316 21.0977 5 19.2168 5H9.85645C7.97559 5 7 5.99316 7 7.88281V21.1455C7 23.0439 7.97559 24.0283 9.85645 24.0283ZM15.5166 15.3184H24.376L25.6768 15.2568L25.0352 15.8018L23.7256 17.0322C23.5674 17.1729 23.4795 17.375 23.4795 17.5771C23.4795 17.9727 23.7783 18.3066 24.1826 18.3066C24.3936 18.3066 24.5518 18.2188 24.7012 18.0693L27.5488 15.125C27.751 14.9141 27.8213 14.7207 27.8213 14.5098C27.8213 14.2988 27.751 14.1055 27.5488 13.8945L24.7012 10.9414C24.5518 10.792 24.3936 10.7129 24.1826 10.7129C23.7783 10.7129 23.4795 11.0293 23.4795 11.4336C23.4795 11.627 23.5674 11.8379 23.7256 11.9785L25.0352 13.2178L25.6855 13.7627L24.376 13.6924H15.5166C15.0859 13.6924 14.7168 14.0615 14.7168 14.5098C14.7168 14.958 15.0859 15.3184 15.5166 15.3184Z" fill="#212529"/>
</svg>
