<svg width="151" height="160" viewBox="0 0 151 160" fill="none" xmlns="http://www.w3.org/2000/svg">
<path d="M110.948 19.1248C112.09 18.9282 112.361 17.2873 111.382 16.6122C108.701 14.7945 104.361 13.0666 100.704 16.9407C94.9563 23.0578 98.9891 37.7222 94.8593 42.3628C94.8593 42.3628 97.0212 30.8268 96.1545 22.2455C95.6245 17.0555 97.9334 13.3251 101.106 11.9119C102.302 11.3564 102.006 9.40296 100.659 9.28989C98.4319 9.17002 96.1459 9.92258 94.5177 12.734C93.6249 14.2675 93.1451 16.0095 93.1308 17.8578C93.0596 20.3732 92.9725 24.9422 93.107 27.6646C93.2842 31.5682 91.9302 39.1568 91.9302 39.1568C91.9302 39.1568 92.609 31.7684 92.0461 24.1136C91.5746 18.0512 90.7942 11.7297 95.0126 9.04097C96.1063 8.33057 95.6538 6.53 94.4101 6.52041C91.871 6.50084 89.0644 7.55745 87.6328 11.7567C86.8373 14.1125 86.8179 16.6282 87.4212 19.0461C88.4271 23.0074 89.9713 31.0805 86.628 34.5462C86.628 34.5462 88.1514 25.1618 85.4564 18.4661C83.6261 13.8823 85.1111 9.47809 87.4659 6.51822C88.3033 5.44643 87.331 3.84723 86.1352 4.35146C83.1724 5.50956 80.1423 8.66961 81.0129 16.7375C81.0129 16.7375 84.7471 29.808 82.1343 32.6118C82.1343 32.6118 82.9397 22.2463 78.7329 16.7199C75.8089 12.8465 79.2199 7.32752 81.5229 4.36725C82.3599 3.3468 81.8544 1.69986 80.6649 1.38262C79.1653 0.960293 77.2508 0.586117 75.5925 0.573333C73.9343 0.560549 72.0138 0.956504 70.5083 1.30431C69.314 1.60318 68.7832 3.24213 69.6044 4.27537C71.9129 7.32253 75.2388 12.8421 72.2036 16.6696C67.9121 22.1304 68.5576 32.5071 68.5576 32.5071C65.9888 29.612 69.9236 16.652 69.9236 16.652C70.9185 8.59849 67.9375 5.3921 64.9928 4.18846C63.8046 3.7172 62.8081 5.24988 63.5771 6.33405C65.8342 9.32947 67.3021 13.8592 65.454 18.3119C62.6561 24.9652 64.0346 34.372 64.0346 34.372C60.7451 30.8552 62.4136 22.8069 63.4805 18.8615C64.1209 16.4532 64.1403 13.9375 63.3813 11.5697C62.015 7.29757 59.2246 6.24915 56.6855 6.22957C55.4418 6.21999 54.9616 8.01336 56.0442 8.74054C60.2207 11.494 59.3429 17.8027 58.778 23.8571C58.0975 31.4509 58.662 38.9003 58.662 38.9003C58.662 38.9003 57.4769 31.2921 57.6624 27.3913C57.8389 24.6714 57.8223 20.1015 57.7899 17.5854C57.7519 15.788 57.3512 13.9878 56.4821 12.4408C54.8975 9.60457 52.6234 8.81686 50.3943 8.90237C49.0984 8.94372 48.7203 10.9433 49.9078 11.5172C53.0573 13.0305 55.3084 16.7961 54.6988 21.9259C53.7004 30.4415 55.6837 42.0608 55.6837 42.0608C51.6782 37.3061 55.8848 22.7052 50.2317 16.5515C46.6862 12.622 42.3203 14.2827 39.56 16.0585C38.5707 16.667 38.8172 18.312 39.9552 18.5775C44.56 19.5372 52.7234 22.7322 51.2455 32.9385C49.2193 47.0428 56.4139 48.1765 56.4139 48.1765C58.7778 44.0357 61.5469 41.1304 64.2051 39.1485C70.8772 34.1167 79.6865 34.1846 86.2802 39.3186C88.9072 41.3927 91.6315 44.289 93.9313 48.4657C93.9313 48.4657 101.091 47.3913 99.3341 33.3092C98.1692 23.0825 106.329 20.0647 110.948 19.1248Z" fill="#B51E59"/>
<path d="M84.5225 85.8238C80.3647 87.3835 74.9794 86.8285 74.9794 86.8285C74.9794 86.8285 69.5862 87.3004 65.4529 85.6768C61.3196 84.0532 52.1024 89.8355 58.837 96.8704C58.837 96.8704 58.0656 89.368 63.3378 91.1544C64.6301 91.5751 65.867 92.4576 66.9477 93.4414C70.2918 96.5993 72.1732 101.286 72.1359 106.112L71.7251 159.405L74.5234 159.427L77.3216 159.449L77.7329 106.104C77.7701 101.278 79.6716 96.6203 83.1158 93.5147C84.2116 92.5476 85.4097 91.7354 86.7606 91.2837C92.0597 89.5788 91.1728 97.0683 91.1728 97.0683C97.8073 90.1879 88.6803 84.2642 84.5225 85.8238Z" fill="#768B63"/>
<path d="M77.5425 130.8C77.5425 130.8 77.7447 124.743 85.3416 120.745C92.9385 116.747 106.178 100.111 103.872 89.9779C103.872 89.9779 102.82 98.8012 98.3852 102.618C98.3852 102.618 99.6337 95.2851 96.2852 92.6921C96.2852 92.6921 99.8864 102.835 91.9659 108.473C91.9659 108.473 94.2926 102.432 90.8951 99.4794C90.8951 99.4794 91.6158 106.827 88.2198 110.395C88.2198 110.395 88.2487 106.647 84.8891 105.492C84.8891 105.492 87.6969 111.007 83.9892 114.676C83.9892 114.676 83.3397 111.539 81.0106 111.161C81.0106 111.161 82.6435 114.46 81.1276 116.143C79.6118 117.825 75.1956 126.007 77.5425 130.8Z" fill="#768B63"/>
<path d="M104.831 93.3227C104.831 93.3227 105.548 101.133 96.7052 112.155C93.5655 116.085 89.7581 119.239 85.541 121.773C82.4175 123.598 78.5584 126.751 78.5271 130.807C78.5271 130.807 85.4915 121.465 91.5793 125.003C91.5793 125.003 91.5979 122.59 90.357 122.221C90.357 122.221 94.0339 115.831 101.071 117.169C101.071 117.169 99.2285 114.228 95.6937 115.639C95.6937 115.639 99.1059 109.966 106.461 110.485C106.461 110.485 105.388 108.423 101.754 109.267C101.754 109.267 104.99 106.366 107.168 106.177C107.168 106.177 104.637 105.028 103.126 106.146C103.229 106.198 107.159 100.529 104.831 93.3227Z" fill="#768B63"/>
<path d="M76.757 158.725C76.757 158.725 80.6265 147.511 97.0719 145.224C113.517 142.938 147.735 120.815 149.241 100.289C149.241 100.289 142.227 116.049 131.83 120.23C131.83 120.23 138.304 107.29 133.54 100.168C133.54 100.168 134.514 121.637 116.492 126.787C116.492 126.787 124.289 117.04 119.633 109.2C119.633 109.2 116.828 123.504 108.451 127.855C108.451 127.855 110.63 120.837 105.015 116.429C105.015 116.429 107.149 128.717 98.0989 133.012C98.0989 133.012 98.6657 126.701 94.4862 124.358C94.4862 124.358 95.6732 131.71 91.9264 133.735C88.1795 135.76 75.1799 148.188 76.757 158.725Z" fill="#768B63"/>
<path d="M149.24 107.169C149.24 107.169 146.17 122.241 123.307 136.903C115.182 142.078 106.243 145.449 97.0043 147.278C90.1535 148.611 81.0597 151.827 78.6689 159.459C78.6689 159.459 97.0083 146.764 106.409 157.516C106.409 157.516 107.843 153.06 105.73 151.504C105.73 151.504 116.271 142.035 128.704 149.319C128.704 149.319 126.994 142.528 119.53 142.83C119.53 142.83 129.129 134.535 142.66 140.544C142.66 140.544 141.815 135.968 134.567 135.039C134.567 135.039 142.262 131.761 146.398 132.922C146.398 132.922 142.334 129.091 138.854 130.091C138.906 130.143 149.435 122.215 149.24 107.169Z" fill="#768B63"/>
<path d="M71.7387 130.755C71.7387 130.755 71.63 124.695 64.0956 120.581C56.5612 116.467 43.5799 99.6281 46.0416 89.5321C46.0416 89.5321 46.958 98.3705 51.333 102.255C51.333 102.255 50.1978 94.904 53.5858 92.3629C53.5858 92.3629 49.8287 102.449 57.6613 108.209C57.6613 108.209 55.428 102.133 58.8706 99.2325C58.8706 99.2325 58.0367 106.568 61.3773 110.188C61.3773 110.188 61.4062 106.44 64.7832 105.337C64.7832 105.337 61.8908 110.808 65.5414 114.533C65.5414 114.533 66.2392 111.407 68.5739 111.065C68.5739 111.065 66.8903 114.338 68.38 116.044C69.8697 117.75 74.1074 125.998 71.7387 130.755Z" fill="#768B63"/>
<path d="M44.9795 92.8613C44.9795 92.8613 44.142 100.659 52.814 111.817C55.8927 115.794 59.651 119.006 63.8286 121.606C66.9235 123.478 70.7336 126.691 70.7023 130.747C70.7023 130.747 63.8828 121.298 57.7412 124.742C57.7412 124.742 57.7598 122.329 59.0062 121.979C59.0062 121.979 55.4283 115.534 48.3709 116.763C48.3709 116.763 50.259 113.851 53.7717 115.316C53.7717 115.316 50.4473 109.591 43.0854 109.996C43.0854 109.996 44.1894 107.951 47.8101 108.851C47.8101 108.851 44.6198 105.9 42.445 105.678C42.445 105.678 44.9929 104.568 46.4869 105.709C46.4347 105.76 42.5922 100.031 44.9795 92.8613Z" fill="#768B63"/>
<path d="M72.0417 158.689C72.0417 158.689 68.3455 147.416 51.9373 144.876C35.5291 142.337 1.65626 119.689 0.467285 99.1417C0.467285 99.1417 7.23737 115.008 17.5684 119.349C17.5684 119.349 11.2948 106.311 16.1686 99.2627C16.1686 99.2627 14.8631 120.715 32.8038 126.142C32.8038 126.142 25.1582 116.276 29.934 108.508C29.934 108.508 32.5182 122.854 40.8271 127.333C40.8271 127.333 38.7567 120.283 44.4387 115.962C44.4387 115.962 42.1158 128.216 51.0988 132.65C51.0988 132.65 50.6293 126.331 54.8445 124.053C54.8445 124.053 53.5442 131.385 57.2594 133.467C61.0264 135.55 73.8329 148.177 72.0417 158.689Z" fill="#768B63"/>
<path d="M0.414018 106.022C0.414018 106.022 3.25137 121.139 25.8858 136.152C33.9293 141.451 42.8157 144.96 52.0249 146.931C58.8544 148.37 67.8975 151.726 70.1704 159.394C70.1704 159.394 52.0289 146.417 42.4636 157.023C42.4636 157.023 41.0989 152.546 43.2354 151.022C43.2354 151.022 32.8414 141.392 20.2975 148.483C20.2975 148.483 22.1116 141.72 29.5709 142.137C29.5709 142.137 20.1006 133.694 6.47832 139.494C6.47832 139.494 7.39448 134.931 14.656 134.114C14.656 134.114 7.01239 130.718 2.85812 131.816C2.85812 131.816 6.98114 128.048 10.4451 129.102C10.3929 129.152 -0.0128757 121.062 0.414018 106.022Z" fill="#768B63"/>
<path d="M86.5476 57.5527L83.4969 54.1939L80.3947 57.5052L81.7298 58.9248C82.6832 59.9656 84.2695 59.9779 85.2869 58.9522L86.5476 57.5527Z" fill="#768B63"/>
<path d="M84.3447 68.9038L86.4775 66.6184L83.4268 63.2596L80.3246 66.571L82.4219 68.889C82.9464 69.4567 83.8116 69.4634 84.3447 68.9038Z" fill="#768B63"/>
<path d="M72.0041 48.3743L73.2437 49.6991C74.2445 50.8343 75.9269 50.8472 76.9932 49.728L78.2531 48.4224L75.2024 45.0636L72.0041 48.3743Z" fill="#768B63"/>
<path d="M75.9326 68.839L78.0654 66.5536L75.0147 63.1948L71.9125 66.5062L74.0098 68.8242C74.5343 69.3919 75.3995 69.3986 75.9326 68.839Z" fill="#768B63"/>
<path d="M80.8549 72.635L82.2605 71.1426L79.2098 67.7838L76.1076 71.0952L77.49 72.6091C78.3957 73.6025 79.8859 73.614 80.8549 72.635Z" fill="#768B63"/>
<path d="M67.7873 52.8514L69.0266 54.2233C70.0277 55.3114 71.7101 55.3244 72.7279 54.2518L73.9883 52.8992L70.9375 49.5404L67.7873 52.8514Z" fill="#768B63"/>
<path d="M61.3107 57.3581L60.0237 55.9389C59.9254 56.22 59.7786 56.5477 59.6326 56.7815C59.1938 57.5767 58.6546 58.9348 58.2089 60.6225L61.3107 57.3581Z" fill="#768B63"/>
<path d="M60.6177 72.479C61.5712 73.5198 63.0613 73.5313 64.0307 72.5053L65.4363 71.0129L62.3855 67.6541L59.2834 70.9655L60.6177 72.479Z" fill="#768B63"/>
<path d="M60.7352 63.4605C61.641 64.454 63.083 64.4651 64.004 63.4857L65.458 61.9468L62.4073 58.588L59.3051 61.8993L60.7352 63.4605Z" fill="#768B63"/>
<path d="M69.7231 57.423L66.6724 54.0642L63.5702 57.3756L64.9053 58.7951C65.8587 59.836 67.445 59.8482 68.4625 58.8226L69.7231 57.423Z" fill="#768B63"/>
<path d="M78.2756 39.3093L78.0852 39.0729C76.308 38.8713 75.2024 38.8628 75.2024 38.8628C75.2024 38.8628 74.0488 38.8539 72.3168 39.0285L72.1227 39.2618L75.1735 42.6206L78.2756 39.3093Z" fill="#768B63"/>
<path d="M91.9052 60.9293C91.4856 59.2349 90.9674 57.8686 90.5409 57.0668C90.3989 56.7838 90.2568 56.5009 90.1629 56.2183L88.8541 57.6175L91.9052 60.9293Z" fill="#768B63"/>
<path d="M59.06 68.7089L61.1929 66.4235L58.1421 63.0648L57.4637 63.7642C57.2114 65.3124 57.1022 67.0027 57.1373 68.6941C57.6617 69.2619 58.5269 69.2685 59.06 68.7089Z" fill="#768B63"/>
<path d="M92.5067 64.0343L91.8391 63.3245L88.737 66.6359L90.8343 68.9539C91.3587 69.5216 92.224 69.5283 92.7571 68.9687C92.8182 67.278 92.7351 65.5863 92.5067 64.0343Z" fill="#768B63"/>
<path d="M68.081 77.1401L69.5835 75.5545L66.5328 72.1957L63.4306 75.5071L64.9084 77.1157C65.718 78.1084 67.2082 78.1199 68.081 77.1401Z" fill="#768B63"/>
<path d="M71.7245 84.6374L71.8196 84.779C72.7799 84.9274 73.7406 85.0287 74.7977 85.0838C75.8556 85.045 76.8658 84.9589 77.7802 84.825L77.8774 84.6848L74.8267 81.326L71.7245 84.6374Z" fill="#768B63"/>
<path d="M90.7429 62.0947L87.6922 58.7359L84.59 62.0473L86.0201 63.6085C86.9259 64.602 88.3679 64.6131 89.2889 63.6337L90.7429 62.0947Z" fill="#768B63"/>
<path d="M72.4161 63.5506L73.8701 62.0116L70.8194 58.6528L67.7172 61.9642L69.1473 63.5254C70.0531 64.5189 71.4951 64.53 72.4161 63.5506Z" fill="#768B63"/>
<path d="M65.5975 68.7593C66.1219 69.3271 66.9872 69.3337 67.5203 68.7741L69.6531 66.4888L66.6023 63.13L63.5002 66.4413L65.5975 68.7593Z" fill="#768B63"/>
<path d="M76.8265 58.887L78.1834 57.4882L75.1326 54.1294L72.0304 57.4407L73.3655 58.8603C74.2224 59.9474 75.8087 59.9596 76.8265 58.887Z" fill="#768B63"/>
<path d="M72.4428 72.5701L73.8484 71.0777L70.7977 67.7189L67.6955 71.0303L69.0779 72.5442C69.9356 73.5373 71.4738 73.5492 72.4428 72.5701Z" fill="#768B63"/>
<path d="M80.8763 63.6158L82.3303 62.0768L79.2796 58.718L76.1774 62.0294L77.6076 63.5906C78.4652 64.5837 79.9554 64.5952 80.8763 63.6158Z" fill="#768B63"/>
<path d="M76.1994 52.9163L77.4387 54.2881C78.4398 55.3763 80.1223 55.3892 81.14 54.3166L82.4004 52.9641L79.3496 49.6053L76.1994 52.9163Z" fill="#768B63"/>
<path d="M58.0725 72.1305L57.5878 72.6435C57.9597 74.2906 58.5242 75.8921 59.3782 77.3549L61.1232 75.4893L58.0725 72.1305Z" fill="#768B63"/>
<path d="M62.2673 76.7195L60.377 78.7249C61.2336 79.8589 62.3312 80.9009 63.7183 81.8041L65.3665 80.0317L62.2673 76.7195Z" fill="#768B63"/>
<path d="M63.592 48.3094L64.8316 49.6343C65.8324 50.7694 67.5148 50.7824 68.5811 49.6632L69.841 48.3576L66.7903 44.9988L63.592 48.3094Z" fill="#768B63"/>
<path d="M61.3809 48.2923L58.5684 45.2172C58.9934 46.207 59.6537 47.8562 60.0241 49.6911L61.3809 48.2923Z" fill="#768B63"/>
<path d="M60.6146 54.1584C61.6157 55.2466 63.2981 55.2596 64.3159 54.187L65.5762 52.8344L62.5255 49.4756L60.4411 51.7144C60.5315 52.4667 60.5257 53.2182 60.4718 53.9694L60.6146 54.1584Z" fill="#768B63"/>
<path d="M65.1056 82.7073C66.2546 83.3269 67.5965 83.8539 69.1318 84.2416L66.4624 81.3085L65.1056 82.7073Z" fill="#768B63"/>
<path d="M64.0954 45.4008L65.6463 43.7686L63.3104 41.2139C62.3942 41.5826 61.4292 42.0449 60.5599 42.555L59.4453 43.7208L60.9708 45.3767C61.7808 46.3224 63.2229 46.3336 64.0954 45.4008Z" fill="#768B63"/>
<path d="M80.5725 84.2828C82.0656 83.9185 83.4155 83.4122 84.622 82.8108L83.3349 81.3916L80.5725 84.2828Z" fill="#768B63"/>
<path d="M86.2069 45.5713C87.0649 46.5174 88.459 46.5281 89.3795 45.5957L90.9304 43.9635L89.8339 42.7807C88.9726 42.2573 88.0629 41.7805 87.1044 41.3973L84.7295 43.9157L86.2069 45.5713Z" fill="#768B63"/>
<path d="M84.4017 80.2254L86.0223 82.023C87.3751 81.1409 88.4887 80.116 89.4107 78.9957L87.5515 76.9614L84.4017 80.2254Z" fill="#768B63"/>
<path d="M88.6667 75.7017L90.3827 77.594C91.2592 76.1445 91.8964 74.5522 92.2455 72.9107L91.7688 72.3903L88.6667 75.7017Z" fill="#768B63"/>
<path d="M90.1636 49.9235C90.6104 48.0949 91.2479 46.4556 91.6882 45.4725L88.8285 48.5039L90.1636 49.9235Z" fill="#768B63"/>
<path d="M87.7622 49.6701L84.6601 52.9815L85.8994 54.3533C86.9005 55.4415 88.5829 55.4545 89.6007 54.3819L89.7945 54.1955C89.7522 53.4435 89.758 52.6919 89.8599 51.9411L87.7622 49.6701Z" fill="#768B63"/>
<path d="M84.9531 77.2702L86.4556 75.6846L83.4048 72.3258L80.3027 75.6372L81.7805 77.2458C82.5901 78.2385 84.0322 78.2496 84.9531 77.2702Z" fill="#768B63"/>
<path d="M89.2668 72.6999L90.6724 71.2075L87.6216 67.8487L84.5195 71.1601L85.9019 72.674C86.8076 73.6674 88.2978 73.6789 89.2668 72.6999Z" fill="#768B63"/>
<path d="M76.541 77.2054L78.0435 75.6198L74.9927 72.261L71.8905 75.5724L73.3684 77.1809C74.178 78.1737 75.6201 78.1848 76.541 77.2054Z" fill="#768B63"/>
<path d="M82.1904 80.2084L79.1397 76.8496L76.0375 80.161L77.1337 81.3908C78.2303 82.5736 79.9608 82.587 81.0754 81.4212L82.1904 80.2084Z" fill="#768B63"/>
<path d="M85.4269 40.7737C83.7488 40.197 82.1174 39.8086 80.6294 39.5153L83.5851 42.7325L85.4269 40.7737Z" fill="#768B63"/>
<path d="M69.3349 45.4412C70.1929 46.3873 71.5869 46.398 72.5074 45.4656L74.0584 43.8334L71.0076 40.4746L67.9054 43.786L69.3349 45.4412Z" fill="#768B63"/>
<path d="M69.7176 39.4312C68.2253 39.7016 66.588 40.0648 64.9012 40.6155L66.7127 42.6024L69.7176 39.4312Z" fill="#768B63"/>
<path d="M77.7948 45.5064C78.6528 46.4525 80.0468 46.4633 80.9674 45.5309L82.5183 43.8987L79.4676 40.5399L76.3654 43.8512L77.7948 45.5064Z" fill="#768B63"/>
<path d="M80.4643 48.4395L81.704 49.7644C82.7047 50.8995 84.3872 50.9125 85.4534 49.7933L86.7133 48.4877L83.6626 45.1289L80.4643 48.4395Z" fill="#768B63"/>
<path d="M73.7786 80.1436L70.7278 76.7848L67.6257 80.0961L68.7218 81.3259C69.8184 82.5088 71.5489 82.5221 72.6635 81.3563L73.7786 80.1436Z" fill="#768B63"/>
</svg>
