<svg width="151" height="160" viewBox="0 0 151 160" fill="none" xmlns="http://www.w3.org/2000/svg">
<path d="M110.948 19.1248C112.09 18.9282 112.361 17.2873 111.382 16.6122C108.701 14.7945 104.361 13.0666 100.704 16.9407C94.9563 23.0578 98.9891 37.7222 94.8593 42.3628C94.8593 42.3628 97.0212 30.8268 96.1545 22.2455C95.6245 17.0555 97.9334 13.3251 101.106 11.9119C102.302 11.3564 102.006 9.40296 100.659 9.28989C98.4319 9.17002 96.1459 9.92258 94.5177 12.734C93.6249 14.2675 93.1451 16.0095 93.1308 17.8578C93.0596 20.3732 92.9725 24.9422 93.107 27.6646C93.2842 31.5682 91.9302 39.1568 91.9302 39.1568C91.9302 39.1568 92.609 31.7684 92.0461 24.1136C91.5746 18.0512 90.7942 11.7297 95.0126 9.04097C96.1063 8.33057 95.6538 6.53 94.4101 6.52041C91.871 6.50084 89.0644 7.55745 87.6328 11.7567C86.8373 14.1125 86.8179 16.6282 87.4212 19.0461C88.4271 23.0074 89.9713 31.0805 86.628 34.5462C86.628 34.5462 88.1514 25.1618 85.4564 18.4661C83.6261 13.8823 85.1111 9.47809 87.4659 6.51822C88.3033 5.44643 87.331 3.84723 86.1352 4.35146C83.1724 5.50956 80.1423 8.66961 81.0129 16.7375C81.0129 16.7375 84.7471 29.808 82.1343 32.6118C82.1343 32.6118 82.9397 22.2463 78.7329 16.7199C75.8089 12.8465 79.2199 7.32752 81.5229 4.36725C82.3599 3.3468 81.8544 1.69986 80.6649 1.38262C79.1653 0.960293 77.2508 0.586117 75.5925 0.573333C73.9343 0.560549 72.0138 0.956504 70.5083 1.30431C69.314 1.60318 68.7832 3.24213 69.6044 4.27537C71.9129 7.32253 75.2388 12.8421 72.2036 16.6696C67.9121 22.1304 68.5576 32.5071 68.5576 32.5071C65.9888 29.612 69.9236 16.652 69.9236 16.652C70.9185 8.59849 67.9375 5.3921 64.9928 4.18846C63.8046 3.7172 62.8081 5.24988 63.5771 6.33405C65.8342 9.32947 67.3021 13.8592 65.454 18.3119C62.6561 24.9652 64.0346 34.372 64.0346 34.372C60.7451 30.8552 62.4136 22.8069 63.4805 18.8615C64.1209 16.4532 64.1403 13.9375 63.3813 11.5697C62.015 7.29757 59.2246 6.24915 56.6855 6.22957C55.4418 6.21999 54.9616 8.01336 56.0442 8.74054C60.2207 11.494 59.3429 17.8027 58.778 23.8571C58.0975 31.4509 58.662 38.9003 58.662 38.9003C58.662 38.9003 57.4769 31.2921 57.6624 27.3913C57.8389 24.6714 57.8223 20.1015 57.7899 17.5854C57.7519 15.788 57.3512 13.9878 56.4821 12.4408C54.8975 9.60457 52.6234 8.81686 50.3943 8.90237C49.0984 8.94372 48.7203 10.9433 49.9078 11.5172C53.0573 13.0305 55.3084 16.7961 54.6988 21.9259C53.7004 30.4415 55.6837 42.0608 55.6837 42.0608C51.6782 37.3061 55.8848 22.7052 50.2317 16.5515C46.6862 12.622 42.3203 14.2827 39.56 16.0585C38.5707 16.667 38.8172 18.312 39.9552 18.5775C44.56 19.5372 52.7234 22.7322 51.2455 32.9385C49.2193 47.0428 56.4139 48.1765 56.4139 48.1765C58.7778 44.0357 61.5469 41.1304 64.2051 39.1485C70.8772 34.1167 79.6865 34.1846 86.2802 39.3186C88.9072 41.3927 91.6315 44.289 93.9313 48.4657C93.9313 48.4657 101.091 47.3913 99.3341 33.3092C98.1692 23.0825 106.329 20.0647 110.948 19.1248Z" fill="#B51E59"/>
<path d="M84.5225 85.8238C80.3647 87.3835 74.9794 86.8285 74.9794 86.8285C74.9794 86.8285 69.5862 87.3004 65.4529 85.6768C61.3196 84.0532 52.1024 89.8355 58.837 96.8704C58.837 96.8704 58.0656 89.368 63.3378 91.1544C64.6301 91.5751 65.867 92.4576 66.9477 93.4414C70.2918 96.5993 72.1732 101.286 72.1359 106.112L71.7251 159.405L74.5234 159.427L77.3216 159.449L77.7329 106.104C77.7701 101.278 79.6716 96.6203 83.1158 93.5147C84.2116 92.5476 85.4097 91.7354 86.7606 91.2837C92.0597 89.5788 91.1728 97.0683 91.1728 97.0683C97.8073 90.1879 88.6803 84.2642 84.5225 85.8238Z" fill="#768B63"/>
<path d="M77.5425 130.8C77.5425 130.8 77.7447 124.743 85.3416 120.745C92.9385 116.747 106.178 100.111 103.872 89.9779C103.872 89.9779 102.82 98.8012 98.3852 102.618C98.3852 102.618 99.6337 95.2851 96.2852 92.6921C96.2852 92.6921 99.8864 102.835 91.9659 108.473C91.9659 108.473 94.2926 102.432 90.8951 99.4794C90.8951 99.4794 91.6158 106.827 88.2198 110.395C88.2198 110.395 88.2487 106.647 84.8891 105.492C84.8891 105.492 87.6969 111.007 83.9892 114.676C83.9892 114.676 83.3397 111.539 81.0106 111.161C81.0106 111.161 82.6435 114.46 81.1276 116.143C79.6118 117.825 75.1956 126.007 77.5425 130.8Z" fill="#768B63"/>
<path d="M104.831 93.3227C104.831 93.3227 105.548 101.133 96.7052 112.155C93.5655 116.085 89.7581 119.239 85.541 121.773C82.4175 123.598 78.5584 126.751 78.5271 130.807C78.5271 130.807 85.4915 121.465 91.5793 125.003C91.5793 125.003 91.5979 122.59 90.357 122.221C90.357 122.221 94.0339 115.831 101.071 117.169C101.071 117.169 99.2285 114.228 95.6937 115.639C95.6937 115.639 99.1059 109.966 106.461 110.485C106.461 110.485 105.388 108.423 101.754 109.267C101.754 109.267 104.99 106.366 107.168 106.177C107.168 106.177 104.637 105.028 103.126 106.146C103.229 106.198 107.159 100.529 104.831 93.3227Z" fill="#768B63"/>
<path d="M76.757 158.725C76.757 158.725 80.6265 147.511 97.0719 145.224C113.517 142.938 147.735 120.815 149.241 100.289C149.241 100.289 142.227 116.049 131.83 120.23C131.83 120.23 138.304 107.29 133.54 100.168C133.54 100.168 134.514 121.637 116.492 126.787C116.492 126.787 124.289 117.04 119.633 109.2C119.633 109.2 116.828 123.504 108.451 127.855C108.451 127.855 110.63 120.837 105.015 116.429C105.015 116.429 107.149 128.717 98.0989 133.012C98.0989 133.012 98.6657 126.701 94.4862 124.358C94.4862 124.358 95.6732 131.71 91.9264 133.735C88.1795 135.76 75.1799 148.188 76.757 158.725Z" fill="#768B63"/>
<path d="M149.24 107.169C149.24 107.169 146.17 122.241 123.307 136.903C115.182 142.078 106.243 145.449 97.0043 147.278C90.1535 148.611 81.0597 151.827 78.6689 159.459C78.6689 159.459 97.0083 146.764 106.409 157.516C106.409 157.516 107.843 153.06 105.73 151.504C105.73 151.504 116.271 142.035 128.704 149.319C128.704 149.319 126.994 142.528 119.53 142.83C119.53 142.83 129.129 134.535 142.66 140.544C142.66 140.544 141.815 135.968 134.567 135.039C134.567 135.039 142.262 131.761 146.398 132.922C146.398 132.922 142.334 129.091 138.854 130.091C138.906 130.143 149.435 122.215 149.24 107.169Z" fill="#768B63"/>
<path d="M71.7387 130.755C71.7387 130.755 71.63 124.695 64.0956 120.581C56.5612 116.467 43.5799 99.6281 46.0416 89.5321C46.0416 89.5321 46.958 98.3705 51.333 102.255C51.333 102.255 50.1978 94.904 53.5858 92.3629C53.5858 92.3629 49.8287 102.449 57.6613 108.209C57.6613 108.209 55.428 102.133 58.8706 99.2325C58.8706 99.2325 58.0367 106.568 61.3773 110.188C61.3773 110.188 61.4062 106.44 64.7832 105.337C64.7832 105.337 61.8908 110.808 65.5414 114.533C65.5414 114.533 66.2392 111.407 68.5739 111.065C68.5739 111.065 66.8903 114.338 68.38 116.044C69.8697 117.75 74.1074 125.998 71.7387 130.755Z" fill="#768B63"/>
<path d="M44.9795 92.8613C44.9795 92.8613 44.142 100.659 52.814 111.817C55.8927 115.794 59.651 119.006 63.8286 121.606C66.9235 123.478 70.7336 126.691 70.7023 130.747C70.7023 130.747 63.8828 121.298 57.7412 124.742C57.7412 124.742 57.7598 122.329 59.0062 121.979C59.0062 121.979 55.4283 115.534 48.3709 116.763C48.3709 116.763 50.259 113.851 53.7717 115.316C53.7717 115.316 50.4473 109.591 43.0854 109.996C43.0854 109.996 44.1894 107.951 47.8101 108.851C47.8101 108.851 44.6198 105.9 42.445 105.678C42.445 105.678 44.9929 104.568 46.4869 105.709C46.4347 105.76 42.5922 100.031 44.9795 92.8613Z" fill="#768B63"/>
<path d="M72.0417 158.689C72.0417 158.689 68.3455 147.416 51.9373 144.876C35.5291 142.337 1.65626 119.689 0.467285 99.1417C0.467285 99.1417 7.23737 115.008 17.5684 119.349C17.5684 119.349 11.2948 106.311 16.1686 99.2627C16.1686 99.2627 14.8631 120.715 32.8038 126.142C32.8038 126.142 25.1582 116.276 29.934 108.508C29.934 108.508 32.5182 122.854 40.8271 127.333C40.8271 127.333 38.7567 120.283 44.4387 115.962C44.4387 115.962 42.1158 128.216 51.0988 132.65C51.0988 132.65 50.6293 126.331 54.8445 124.053C54.8445 124.053 53.5442 131.385 57.2594 133.467C61.0264 135.55 73.8329 148.177 72.0417 158.689Z" fill="#768B63"/>
<path d="M0.414018 106.022C0.414018 106.022 3.25137 121.139 25.8858 136.152C33.9293 141.451 42.8157 144.96 52.0249 146.931C58.8544 148.37 67.8975 151.726 70.1704 159.394C70.1704 159.394 52.0289 146.417 42.4636 157.023C42.4636 157.023 41.0989 152.546 43.2354 151.022C43.2354 151.022 32.8414 141.392 20.2975 148.483C20.2975 148.483 22.1116 141.72 29.5709 142.137C29.5709 142.137 20.1006 133.694 6.47832 139.494C6.47832 139.494 7.39448 134.931 14.656 134.114C14.656 134.114 7.01239 130.718 2.85812 131.816C2.85812 131.816 6.98114 128.048 10.4451 129.102C10.3929 129.152 -0.0128757 121.062 0.414018 106.022Z" fill="#768B63"/>
</svg>
