<svg width="17" height="16" viewBox="0 0 17 16" fill="none" xmlns="http://www.w3.org/2000/svg">
<path d="M8.01578 16C8.94182 16 9.47344 15.3712 9.47344 14.3406V9.62445H14.4124C15.3727 9.62445 16.0415 9.1179 16.0415 8.19214C16.0415 7.24891 15.407 6.70742 14.4124 6.70742H9.47344V1.65939C9.47344 0.646288 8.94182 0 8.01578 0C7.10688 0 6.60956 0.681223 6.60956 1.65939V6.70742H1.68781C0.693165 6.70742 0.0415039 7.24891 0.0415039 8.19214C0.0415039 9.1179 0.727463 9.62445 1.68781 9.62445H6.60956V14.3406C6.60956 15.3362 7.10688 16 8.01578 16Z" fill="#212529"/>
</svg>
