<svg width="22" height="18" viewBox="0 0 22 18" fill="none" xmlns="http://www.w3.org/2000/svg">
<path d="M21.6854 9.53577H21.7438L19.5428 5.36741C19.1611 4.70633 18.5608 4.19906 17.8453 3.933C17.6004 3.35595 17.19 2.8644 16.6659 2.5204C16.1418 2.17641 15.5276 1.99539 14.9007 2.0002C14.2739 2.00501 13.6625 2.19543 13.1438 2.54743C12.6251 2.89943 12.2222 3.39722 11.9862 3.97796C11.6831 3.82552 11.3486 3.74613 11.0093 3.74613C10.6701 3.74613 10.3355 3.82552 10.0324 3.97796C9.79519 3.39341 9.38894 2.89294 8.86566 2.54058C8.34238 2.18822 7.72587 2 7.09501 2C6.46416 2 5.84765 2.18822 5.32437 2.54058C4.80109 2.89294 4.39484 3.39341 4.1576 3.97796C3.48218 4.25466 2.9187 4.74928 2.55681 5.38315L0.841355 8.51279C0.422562 9.13276 0.150978 9.84024 0.0473399 10.5812C-0.0562984 11.3221 0.01075 12.077 0.243365 12.7881C0.475981 13.4991 0.868011 14.1477 1.38952 14.6841C1.91103 15.2206 2.54823 15.6308 3.25247 15.8834C3.9567 16.1359 4.70934 16.2243 5.45293 16.1416C6.19651 16.0589 6.91137 15.8074 7.54291 15.4063C8.17446 15.0052 8.706 14.465 9.09693 13.8271C9.48787 13.1892 9.72787 12.4704 9.7986 11.7256C9.81392 11.571 9.82142 11.4156 9.82108 11.2602C9.82151 10.9303 9.78913 10.6012 9.72441 10.2777C9.68094 10.0757 9.62462 9.87672 9.55579 9.68191C9.68753 9.41123 9.89272 9.18304 10.148 9.02341C10.4032 8.86378 10.6982 8.77913 10.9992 8.77913C11.3002 8.77913 11.5952 8.86378 11.8504 9.02341C12.1057 9.18304 12.3109 9.41123 12.4426 9.68191C12.3738 9.87748 12.3174 10.0772 12.274 10.28C12.2093 10.6034 12.1769 10.9326 12.1773 11.2625C12.1774 11.4126 12.1849 11.5627 12.1998 11.7121C12.2636 12.4096 12.4758 13.0854 12.8222 13.6941C13.1687 14.3028 13.6414 14.8303 14.2085 15.2413C14.7757 15.6523 15.4242 15.9371 16.1105 16.0768C16.7969 16.2165 17.5051 16.2077 18.1878 16.0511C18.8704 15.8944 19.5117 15.5936 20.0685 15.1687C20.6253 14.7438 21.0847 14.2047 21.416 13.5876C21.7473 12.9705 21.9427 12.2897 21.9892 11.5908C22.0356 10.892 21.9321 10.1913 21.6854 9.53577ZM4.90854 14.554C4.29822 14.5518 3.70051 14.3801 3.18209 14.0581C2.66367 13.736 2.24493 13.2762 1.97258 12.73C1.70024 12.1839 1.585 11.5727 1.63973 10.9649C1.69446 10.357 1.917 9.77632 2.28253 9.28757C2.64806 8.79882 3.14219 8.42123 3.7098 8.19695C4.27742 7.97266 4.89618 7.91049 5.49707 8.01738C6.09795 8.12427 6.65733 8.396 7.11278 8.80227C7.56823 9.20854 7.90184 9.73336 8.0764 10.3182C8.16947 10.6235 8.21645 10.941 8.2158 11.2602C8.21341 12.1354 7.86378 12.9738 7.24367 13.5914C6.62357 14.209 5.78371 14.5552 4.90854 14.554ZM17.0899 14.554C16.2151 14.5546 15.3758 14.2081 14.7562 13.5906C14.1366 12.9731 13.7872 12.135 13.7848 11.2602C13.7832 10.9396 13.8294 10.6206 13.922 10.3137C14.1292 9.6345 14.5487 9.03963 15.1188 8.61636C15.689 8.1931 16.3798 7.96375 17.0899 7.96196C17.5388 7.96127 17.9832 8.0527 18.3954 8.23059C18.8077 8.40848 19.179 8.66905 19.4865 8.99618H19.5L19.6709 9.20527C20.0591 9.69012 20.3022 10.2749 20.3721 10.8921C20.442 11.5093 20.3358 12.1336 20.0659 12.693C19.796 13.2524 19.3733 13.724 18.8466 14.0533C18.32 14.3826 17.711 14.5562 17.0899 14.554Z" fill="#545A6D"/>
</svg>
